<?xml version="1.0" encoding="utf-8"?>
<!-- Generator: Adobe Illustrator 27.5.0, SVG Export Plug-In . SVG Version: 6.00 Build 0)  -->
<svg version="1.1" xmlns="http://www.w3.org/2000/svg" xmlns:xlink="http://www.w3.org/1999/xlink" x="0px" y="0px"
	 viewBox="0 0 750 500" style="enable-background:new 0 0 750 500;" xml:space="preserve">
<g id="Background_Simple">
	<g>
		<path style="fill:#92E3A9;" d="M720.64,202.821c-23.815-54.158-68.823-96.082-124.102-117.166
			c-57.042-21.757-140.821-43.029-239.275-35.169C171.32,65.329,11.941,230.178,19.753,282.523
			c7.813,52.345,263.289,219.538,439.075,182.818c175.786-36.72,272.855-145.665,270.32-234.382
			C728.953,224.123,725.584,214.064,720.64,202.821z"/>
		<path style="opacity:0.7;fill:#FFFFFF;" d="M720.64,202.821c-23.815-54.158-68.823-96.082-124.102-117.166
			c-57.042-21.757-140.821-43.029-239.275-35.169C171.32,65.329,11.941,230.178,19.753,282.523
			c7.813,52.345,263.289,219.538,439.075,182.818c175.786-36.72,272.855-145.665,270.32-234.382
			C728.953,224.123,725.584,214.064,720.64,202.821z"/>
	</g>
</g>
<g id="Floor">
	
		<line style="fill:none;stroke:#263238;stroke-linecap:round;stroke-linejoin:round;stroke-miterlimit:10;" x1="18.651" y1="438.139" x2="732.584" y2="438.139"/>
</g>
<g id="Picture">
	<g>
		
			<rect x="356.474" y="70.482" style="fill:#263238;stroke:#263238;stroke-linecap:round;stroke-linejoin:round;stroke-miterlimit:10;" width="76.613" height="100.128"/>
		
			<rect x="359.542" y="74.491" style="fill:#FFFFFF;stroke:#263238;stroke-linecap:round;stroke-linejoin:round;stroke-miterlimit:10;" width="70.478" height="92.11"/>
		
			<rect x="376.255" y="96.334" style="fill:#263238;stroke:#263238;stroke-linecap:round;stroke-linejoin:round;stroke-miterlimit:10;" width="37.052" height="48.424"/>
	</g>
</g>
<g id="Windows">
	<g>
		<g>
			
				<rect x="451.651" y="55.651" style="fill:none;stroke:#263238;stroke-linecap:round;stroke-linejoin:round;stroke-miterlimit:10;" width="54.788" height="38.029"/>
			
				<rect x="512.24" y="55.651" style="fill:none;stroke:#263238;stroke-linecap:round;stroke-linejoin:round;stroke-miterlimit:10;" width="54.788" height="38.029"/>
			
				<rect x="572.829" y="55.651" style="fill:none;stroke:#263238;stroke-linecap:round;stroke-linejoin:round;stroke-miterlimit:10;" width="54.788" height="38.029"/>
			
				<rect x="633.418" y="55.651" style="fill:none;stroke:#263238;stroke-linecap:round;stroke-linejoin:round;stroke-miterlimit:10;" width="54.788" height="38.029"/>
		</g>
		<g>
			
				<rect x="451.651" y="101.414" style="fill:none;stroke:#263238;stroke-linecap:round;stroke-linejoin:round;stroke-miterlimit:10;" width="54.788" height="38.029"/>
			
				<rect x="512.24" y="101.414" style="fill:none;stroke:#263238;stroke-linecap:round;stroke-linejoin:round;stroke-miterlimit:10;" width="54.788" height="38.029"/>
			
				<rect x="572.829" y="101.414" style="fill:none;stroke:#263238;stroke-linecap:round;stroke-linejoin:round;stroke-miterlimit:10;" width="54.788" height="38.029"/>
			
				<rect x="633.418" y="101.414" style="fill:none;stroke:#263238;stroke-linecap:round;stroke-linejoin:round;stroke-miterlimit:10;" width="54.788" height="38.029"/>
		</g>
		<g>
			
				<rect x="451.651" y="147.178" style="fill:none;stroke:#263238;stroke-linecap:round;stroke-linejoin:round;stroke-miterlimit:10;" width="54.788" height="38.029"/>
			
				<rect x="512.24" y="147.178" style="fill:none;stroke:#263238;stroke-linecap:round;stroke-linejoin:round;stroke-miterlimit:10;" width="54.788" height="38.029"/>
			
				<rect x="572.829" y="147.178" style="fill:none;stroke:#263238;stroke-linecap:round;stroke-linejoin:round;stroke-miterlimit:10;" width="54.788" height="38.029"/>
			
				<rect x="633.418" y="147.178" style="fill:none;stroke:#263238;stroke-linecap:round;stroke-linejoin:round;stroke-miterlimit:10;" width="54.788" height="38.029"/>
		</g>
	</g>
	<g>
		<g>
			
				<rect x="100.019" y="55.651" style="fill:none;stroke:#263238;stroke-linecap:round;stroke-linejoin:round;stroke-miterlimit:10;" width="54.788" height="38.029"/>
			
				<rect x="160.608" y="55.651" style="fill:none;stroke:#263238;stroke-linecap:round;stroke-linejoin:round;stroke-miterlimit:10;" width="54.788" height="38.029"/>
			
				<rect x="221.197" y="55.651" style="fill:none;stroke:#263238;stroke-linecap:round;stroke-linejoin:round;stroke-miterlimit:10;" width="54.788" height="38.029"/>
			
				<rect x="281.786" y="55.651" style="fill:none;stroke:#263238;stroke-linecap:round;stroke-linejoin:round;stroke-miterlimit:10;" width="54.788" height="38.029"/>
		</g>
		<g>
			
				<rect x="100.019" y="101.414" style="fill:none;stroke:#263238;stroke-linecap:round;stroke-linejoin:round;stroke-miterlimit:10;" width="54.788" height="38.029"/>
			
				<rect x="160.608" y="101.414" style="fill:none;stroke:#263238;stroke-linecap:round;stroke-linejoin:round;stroke-miterlimit:10;" width="54.788" height="38.029"/>
			
				<rect x="221.197" y="101.414" style="fill:none;stroke:#263238;stroke-linecap:round;stroke-linejoin:round;stroke-miterlimit:10;" width="54.788" height="38.029"/>
			
				<rect x="281.786" y="101.414" style="fill:none;stroke:#263238;stroke-linecap:round;stroke-linejoin:round;stroke-miterlimit:10;" width="54.788" height="38.029"/>
		</g>
		<g>
			
				<rect x="100.019" y="147.178" style="fill:none;stroke:#263238;stroke-linecap:round;stroke-linejoin:round;stroke-miterlimit:10;" width="54.788" height="38.029"/>
			
				<rect x="160.608" y="147.178" style="fill:none;stroke:#263238;stroke-linecap:round;stroke-linejoin:round;stroke-miterlimit:10;" width="54.788" height="38.029"/>
			
				<rect x="221.197" y="147.178" style="fill:none;stroke:#263238;stroke-linecap:round;stroke-linejoin:round;stroke-miterlimit:10;" width="54.788" height="38.029"/>
			
				<rect x="281.786" y="147.178" style="fill:none;stroke:#263238;stroke-linecap:round;stroke-linejoin:round;stroke-miterlimit:10;" width="54.788" height="38.029"/>
		</g>
	</g>
</g>
<g id="Plant">
	<g>
		<g>
			
				<line style="fill:none;stroke:#263238;stroke-linecap:round;stroke-linejoin:round;stroke-miterlimit:10;" x1="372.68" y1="270.97" x2="385.866" y2="397.314"/>
			<g>
				<g>
					
						<line style="fill:none;stroke:#263238;stroke-linecap:round;stroke-linejoin:round;stroke-miterlimit:10;" x1="383.268" y1="372.608" x2="377.763" y2="366.821"/>
					<path style="fill:#92E3A9;stroke:#263238;stroke-miterlimit:10;" d="M379.579,368.713c0,0,0.171-2.793-2.379-5.071
						c-1.534-1.37-9.609-4.767-10.375-1.923C365.991,364.812,374.257,370.887,379.579,368.713z"/>
					
						<line style="fill:none;stroke:#263238;stroke-linecap:round;stroke-linejoin:round;stroke-miterlimit:10;" x1="379.579" y1="368.713" x2="371.892" y2="363.922"/>
				</g>
				<g>
					
						<line style="fill:none;stroke:#263238;stroke-linecap:round;stroke-linejoin:round;stroke-miterlimit:10;" x1="384.636" y1="385.659" x2="379.263" y2="381.19"/>
					<path style="fill:#92E3A9;stroke:#263238;stroke-miterlimit:10;" d="M381.079,383.082c0,0,0.171-2.793-2.379-5.07
						c-1.534-1.37-9.609-4.767-10.375-1.923C367.491,379.181,375.756,385.256,381.079,383.082z"/>
					
						<line style="fill:none;stroke:#263238;stroke-linecap:round;stroke-linejoin:round;stroke-miterlimit:10;" x1="381.079" y1="383.082" x2="373.392" y2="378.291"/>
				</g>
				<g>
					
						<line style="fill:none;stroke:#263238;stroke-linecap:round;stroke-linejoin:round;stroke-miterlimit:10;" x1="379.532" y1="336.642" x2="374.104" y2="331.759"/>
					<path style="fill:#92E3A9;stroke:#263238;stroke-miterlimit:10;" d="M375.92,333.65c0,0,0.171-2.793-2.379-5.07
						c-1.534-1.37-9.609-4.767-10.375-1.923C362.332,329.75,370.597,335.824,375.92,333.65z"/>
					
						<line style="fill:none;stroke:#263238;stroke-linecap:round;stroke-linejoin:round;stroke-miterlimit:10;" x1="375.92" y1="333.65" x2="368.233" y2="328.859"/>
				</g>
				<g>
					
						<line style="fill:none;stroke:#263238;stroke-linecap:round;stroke-linejoin:round;stroke-miterlimit:10;" x1="381.045" y1="351.922" x2="375.604" y2="346.127"/>
					<path style="fill:#92E3A9;stroke:#263238;stroke-miterlimit:10;" d="M377.42,348.019c0,0,0.171-2.793-2.379-5.071
						c-1.534-1.37-9.609-4.767-10.375-1.923C363.832,344.118,372.097,350.193,377.42,348.019z"/>
					
						<line style="fill:none;stroke:#263238;stroke-linecap:round;stroke-linejoin:round;stroke-miterlimit:10;" x1="377.42" y1="348.019" x2="369.732" y2="343.228"/>
				</g>
				<g>
					
						<line style="fill:none;stroke:#263238;stroke-linecap:round;stroke-linejoin:round;stroke-miterlimit:10;" x1="377.113" y1="313.967" x2="371.668" y2="308.417"/>
					<path style="fill:#92E3A9;stroke:#263238;stroke-miterlimit:10;" d="M373.484,310.309c0,0,0.171-2.793-2.379-5.07
						c-1.534-1.37-9.609-4.767-10.376-1.923C359.896,306.408,368.161,312.483,373.484,310.309z"/>
					
						<line style="fill:none;stroke:#263238;stroke-linecap:round;stroke-linejoin:round;stroke-miterlimit:10;" x1="373.484" y1="310.309" x2="365.797" y2="305.518"/>
				</g>
				<g>
					
						<line style="fill:none;stroke:#263238;stroke-linecap:round;stroke-linejoin:round;stroke-miterlimit:10;" x1="374.492" y1="289.006" x2="369.222" y2="284.974"/>
					<path style="fill:#92E3A9;stroke:#263238;stroke-miterlimit:10;" d="M371.038,286.866c0,0,0.171-2.793-2.379-5.071
						c-1.534-1.37-9.609-4.767-10.376-1.923C357.45,282.965,365.715,289.04,371.038,286.866z"/>
					
						<line style="fill:none;stroke:#263238;stroke-linecap:round;stroke-linejoin:round;stroke-miterlimit:10;" x1="371.038" y1="286.866" x2="363.35" y2="282.075"/>
				</g>
				<g>
					
						<line style="fill:none;stroke:#263238;stroke-linecap:round;stroke-linejoin:round;stroke-miterlimit:10;" x1="382.736" y1="364.633" x2="387.281" y2="357.221"/>
					<path style="fill:#92E3A9;stroke:#263238;stroke-miterlimit:10;" d="M385.895,359.447c0,0-0.744-2.697,1.281-5.452
						c1.218-1.658,8.418-6.649,9.755-4.024C398.384,352.825,391.552,360.475,385.895,359.447z"/>
					
						<line style="fill:none;stroke:#263238;stroke-linecap:round;stroke-linejoin:round;stroke-miterlimit:10;" x1="385.895" y1="359.447" x2="391.303" y2="354.372"/>
				</g>
				<g>
					
						<line style="fill:none;stroke:#263238;stroke-linecap:round;stroke-linejoin:round;stroke-miterlimit:10;" x1="378.79" y1="326.821" x2="383.335" y2="319.409"/>
					<path style="fill:#92E3A9;stroke:#263238;stroke-miterlimit:10;" d="M381.949,321.635c0,0-0.744-2.697,1.281-5.452
						c1.218-1.658,6.851-5.81,8.188-3.185C392.871,315.853,387.606,322.664,381.949,321.635z"/>
					
						<line style="fill:none;stroke:#263238;stroke-linecap:round;stroke-linejoin:round;stroke-miterlimit:10;" x1="381.949" y1="321.635" x2="388.871" y2="315.019"/>
				</g>
				<g>
					
						<line style="fill:none;stroke:#263238;stroke-linecap:round;stroke-linejoin:round;stroke-miterlimit:10;" x1="377.056" y1="310.204" x2="381.601" y2="302.792"/>
					<path style="fill:#92E3A9;stroke:#263238;stroke-miterlimit:10;" d="M380.215,305.018c0,0-0.744-2.697,1.281-5.452
						c1.218-1.657,8.418-6.649,9.754-4.024C392.704,298.396,385.872,306.047,380.215,305.018z"/>
					
						<line style="fill:none;stroke:#263238;stroke-linecap:round;stroke-linejoin:round;stroke-miterlimit:10;" x1="380.215" y1="305.018" x2="387.137" y2="298.402"/>
				</g>
				<g>
					
						<line style="fill:none;stroke:#263238;stroke-linecap:round;stroke-linejoin:round;stroke-miterlimit:10;" x1="374.513" y1="285.844" x2="379.059" y2="278.432"/>
					<path style="fill:#92E3A9;stroke:#263238;stroke-miterlimit:10;" d="M377.672,280.658c0,0-0.744-2.697,1.281-5.452
						c1.218-1.657,8.418-6.649,9.754-4.024C390.162,274.036,383.329,281.686,377.672,280.658z"/>
					
						<line style="fill:none;stroke:#263238;stroke-linecap:round;stroke-linejoin:round;stroke-miterlimit:10;" x1="377.672" y1="280.658" x2="384.594" y2="274.042"/>
					<path style="fill:#92E3A9;stroke:#263238;stroke-miterlimit:10;" d="M372.569,270.268c0,0-0.744-2.697,1.281-5.452
						c1.218-1.658,8.418-6.648,9.755-4.024C385.059,263.646,378.227,271.297,372.569,270.268z"/>
					
						<line style="fill:none;stroke:#263238;stroke-linecap:round;stroke-linejoin:round;stroke-miterlimit:10;" x1="372.569" y1="270.268" x2="379.491" y2="263.652"/>
					<path style="fill:#92E3A9;stroke:#263238;stroke-miterlimit:10;" d="M372.971,270.554c0,0-2.76,0.457-5.288-1.846
						c-1.521-1.385-5.729-9.068-2.979-10.123C367.695,257.439,374.587,265.036,372.971,270.554z"/>
					
						<line style="fill:none;stroke:#263238;stroke-linecap:round;stroke-linejoin:round;stroke-miterlimit:10;" x1="372.971" y1="270.554" x2="367.117" y2="262.976"/>
				</g>
			</g>
		</g>
		
			<line style="fill:none;stroke:#263238;stroke-linecap:round;stroke-linejoin:round;stroke-miterlimit:10;" x1="392.433" y1="236.919" x2="392.433" y2="396.698"/>
		<g>
			
				<line style="fill:none;stroke:#263238;stroke-linecap:round;stroke-linejoin:round;stroke-miterlimit:10;" x1="407.457" y1="288.37" x2="394.346" y2="414.721"/>
			<g>
				<g>
					
						<line style="fill:none;stroke:#263238;stroke-linecap:round;stroke-linejoin:round;stroke-miterlimit:10;" x1="397.116" y1="388.907" x2="394.083" y2="385.439"/>
					<path style="fill:#92E3A9;stroke:#263238;stroke-miterlimit:10;" d="M394.083,385.439c0,0,0.742-2.698-1.284-5.452
						c-1.219-1.657-8.422-6.643-9.757-4.018C381.59,378.824,388.427,386.47,394.083,385.439z"/>
					
						<line style="fill:none;stroke:#263238;stroke-linecap:round;stroke-linejoin:round;stroke-miterlimit:10;" x1="394.083" y1="385.439" x2="387.547" y2="379.168"/>
				</g>
				<g>
					
						<line style="fill:none;stroke:#263238;stroke-linecap:round;stroke-linejoin:round;stroke-miterlimit:10;" x1="400.82" y1="352.833" x2="396.318" y2="349.072"/>
					<path style="fill:#92E3A9;stroke:#263238;stroke-miterlimit:10;" d="M397.722,350.374c0,0,0.742-2.698-1.284-5.452
						c-1.219-1.657-8.422-6.644-9.757-4.018C385.228,343.759,392.065,351.405,397.722,350.374z"/>
					
						<line style="fill:none;stroke:#263238;stroke-linecap:round;stroke-linejoin:round;stroke-miterlimit:10;" x1="397.722" y1="350.374" x2="391.186" y2="344.103"/>
				</g>
				<g>
					
						<line style="fill:none;stroke:#263238;stroke-linecap:round;stroke-linejoin:round;stroke-miterlimit:10;" x1="399.392" y1="369.927" x2="394.843" y2="362.518"/>
					<path style="fill:#92E3A9;stroke:#263238;stroke-miterlimit:10;" d="M396.231,364.743c0,0,0.742-2.698-1.284-5.452
						c-1.219-1.657-8.422-6.644-9.757-4.018C383.737,358.129,390.574,365.775,396.231,364.743z"/>
					
						<line style="fill:none;stroke:#263238;stroke-linecap:round;stroke-linejoin:round;stroke-miterlimit:10;" x1="396.231" y1="364.743" x2="389.695" y2="358.473"/>
				</g>
				<g>
					
						<line style="fill:none;stroke:#263238;stroke-linecap:round;stroke-linejoin:round;stroke-miterlimit:10;" x1="403.1" y1="329.81" x2="398.756" y2="324.806"/>
					<path style="fill:#92E3A9;stroke:#263238;stroke-miterlimit:10;" d="M400.144,327.031c0,0,0.742-2.698-1.284-5.452
						c-1.219-1.657-8.422-6.644-9.757-4.018C387.651,320.416,394.487,328.063,400.144,327.031z"/>
					
						<line style="fill:none;stroke:#263238;stroke-linecap:round;stroke-linejoin:round;stroke-miterlimit:10;" x1="400.144" y1="327.031" x2="393.608" y2="320.76"/>
				</g>
				<g>
					
						<line style="fill:none;stroke:#263238;stroke-linecap:round;stroke-linejoin:round;stroke-miterlimit:10;" x1="405.379" y1="307.869" x2="401.189" y2="301.361"/>
					<path style="fill:#92E3A9;stroke:#263238;stroke-miterlimit:10;" d="M402.577,303.586c0,0,0.742-2.698-1.285-5.451
						c-1.219-1.657-8.421-6.644-9.757-4.018C390.083,296.972,396.92,304.618,402.577,303.586z"/>
					
						<line style="fill:none;stroke:#263238;stroke-linecap:round;stroke-linejoin:round;stroke-miterlimit:10;" x1="402.577" y1="303.586" x2="396.041" y2="297.316"/>
				</g>
				<g>
					
						<line style="fill:none;stroke:#263238;stroke-linecap:round;stroke-linejoin:round;stroke-miterlimit:10;" x1="398.012" y1="382.096" x2="403.986" y2="375.779"/>
					<path style="fill:#92E3A9;stroke:#263238;stroke-miterlimit:10;" d="M402.171,377.672c0,0-0.173-2.793,2.376-5.072
						c1.534-1.371,9.606-4.773,10.374-1.929C415.757,373.763,407.495,379.843,402.171,377.672z"/>
					
						<line style="fill:none;stroke:#263238;stroke-linecap:round;stroke-linejoin:round;stroke-miterlimit:10;" x1="402.171" y1="377.672" x2="410.307" y2="372.623"/>
				</g>
				<g>
					
						<line style="fill:none;stroke:#263238;stroke-linecap:round;stroke-linejoin:round;stroke-miterlimit:10;" x1="401.936" y1="344.282" x2="407.91" y2="337.965"/>
					<path style="fill:#92E3A9;stroke:#263238;stroke-miterlimit:10;" d="M406.095,339.858c0,0-0.173-2.793,2.376-5.072
						c1.534-1.371,9.606-4.773,10.374-1.929C419.681,335.949,411.419,342.029,406.095,339.858z"/>
					
						<line style="fill:none;stroke:#263238;stroke-linecap:round;stroke-linejoin:round;stroke-miterlimit:10;" x1="406.095" y1="339.858" x2="414.231" y2="334.808"/>
				</g>
				<g>
					
						<line style="fill:none;stroke:#263238;stroke-linecap:round;stroke-linejoin:round;stroke-miterlimit:10;" x1="403.661" y1="327.664" x2="409.634" y2="321.347"/>
					<path style="fill:#92E3A9;stroke:#263238;stroke-miterlimit:10;" d="M407.819,323.24c0,0-0.173-2.793,2.376-5.072
						c1.533-1.371,9.606-4.773,10.374-1.929C421.405,319.331,413.144,325.411,407.819,323.24z"/>
					
						<line style="fill:none;stroke:#263238;stroke-linecap:round;stroke-linejoin:round;stroke-miterlimit:10;" x1="407.819" y1="323.24" x2="415.955" y2="318.191"/>
				</g>
				<g>
					
						<line style="fill:none;stroke:#263238;stroke-linecap:round;stroke-linejoin:round;stroke-miterlimit:10;" x1="406.12" y1="302.056" x2="412.163" y2="296.985"/>
					<path style="fill:#92E3A9;stroke:#263238;stroke-miterlimit:10;" d="M410.347,298.878c0,0-0.173-2.793,2.376-5.072
						c1.534-1.371,9.606-4.773,10.375-1.929C423.933,294.969,415.671,301.049,410.347,298.878z"/>
					<line style="fill:#FFFFFF;stroke:#263238;stroke-miterlimit:10;" x1="410.347" y1="298.878" x2="418.484" y2="293.828"/>
					<path style="fill:#92E3A9;stroke:#263238;stroke-miterlimit:10;" d="M407.493,287.66c0,0-0.173-2.793,2.376-5.072
						c1.533-1.371,9.606-4.773,10.374-1.929C421.079,283.751,412.817,289.831,407.493,287.66z"/>
					
						<line style="fill:none;stroke:#263238;stroke-linecap:round;stroke-linejoin:round;stroke-miterlimit:10;" x1="407.493" y1="287.66" x2="415.629" y2="282.611"/>
					<path style="fill:#92E3A9;stroke:#263238;stroke-miterlimit:10;" d="M407.827,288.022c0,0-2.796-0.121-4.794-2.895
						c-1.203-1.669-3.739-10.054-0.831-10.519C405.365,274.102,410.545,282.955,407.827,288.022z"/>
					
						<line style="fill:none;stroke:#263238;stroke-linecap:round;stroke-linejoin:round;stroke-miterlimit:10;" x1="407.827" y1="288.022" x2="403.659" y2="279.401"/>
				</g>
			</g>
		</g>
		<g>
			<g>
				
					<line style="fill:none;stroke:#263238;stroke-linecap:round;stroke-linejoin:round;stroke-miterlimit:10;" x1="392.215" y1="372.38" x2="387.27" y2="365.774"/>
				<path style="fill:#92E3A9;stroke:#263238;stroke-miterlimit:10;" d="M388.88,367.845c0,0,0.46-2.76-1.84-5.29
					c-1.384-1.522-9.062-5.739-10.12-2.99C375.77,362.554,383.36,369.454,388.88,367.845z"/>
				
					<line style="fill:none;stroke:#263238;stroke-linecap:round;stroke-linejoin:round;stroke-miterlimit:10;" x1="388.88" y1="367.845" x2="381.731" y2="362.282"/>
			</g>
			<g>
				
					<line style="fill:none;stroke:#263238;stroke-linecap:round;stroke-linejoin:round;stroke-miterlimit:10;" x1="392.387" y1="340.514" x2="387.27" y2="335.748"/>
				<path style="fill:#92E3A9;stroke:#263238;stroke-miterlimit:10;" d="M388.88,337.818c0,0,0.46-2.76-1.84-5.29
					c-1.384-1.522-9.062-5.739-10.12-2.99C375.77,332.528,383.36,339.428,388.88,337.818z"/>
				
					<line style="fill:none;stroke:#263238;stroke-linecap:round;stroke-linejoin:round;stroke-miterlimit:10;" x1="388.88" y1="337.818" x2="381.731" y2="332.255"/>
			</g>
			<g>
				
					<line style="fill:none;stroke:#263238;stroke-linecap:round;stroke-linejoin:round;stroke-miterlimit:10;" x1="392.56" y1="307.394" x2="387.27" y2="300.495"/>
				<path style="fill:#92E3A9;stroke:#263238;stroke-miterlimit:10;" d="M388.88,302.564c0,0,0.46-2.76-1.84-5.29
					c-1.384-1.522-9.062-5.739-10.12-2.99C375.77,297.275,383.36,304.174,388.88,302.564z"/>
				
					<line style="fill:none;stroke:#263238;stroke-linecap:round;stroke-linejoin:round;stroke-miterlimit:10;" x1="388.88" y1="302.564" x2="381.731" y2="297.002"/>
			</g>
			<g>
				
					<line style="fill:none;stroke:#263238;stroke-linecap:round;stroke-linejoin:round;stroke-miterlimit:10;" x1="392.215" y1="281.484" x2="387.27" y2="277.026"/>
				<path style="fill:#92E3A9;stroke:#263238;stroke-miterlimit:10;" d="M388.88,279.096c0,0,0.46-2.76-1.84-5.29
					c-1.384-1.522-9.062-5.739-10.12-2.99C375.77,273.806,383.36,280.706,388.88,279.096z"/>
				
					<line style="fill:none;stroke:#263238;stroke-linecap:round;stroke-linejoin:round;stroke-miterlimit:10;" x1="388.88" y1="279.096" x2="381.731" y2="273.534"/>
			</g>
			<g>
				
					<line style="fill:none;stroke:#263238;stroke-linecap:round;stroke-linejoin:round;stroke-miterlimit:10;" x1="392.5" y1="258.004" x2="387.371" y2="254.243"/>
				<path style="fill:#92E3A9;stroke:#263238;stroke-miterlimit:10;" d="M388.88,255.526c0,0,0.46-2.76-1.84-5.29
					c-1.384-1.522-9.062-5.739-10.12-2.99C375.77,250.236,383.36,257.136,388.88,255.526z"/>
				
					<line style="fill:none;stroke:#263238;stroke-linecap:round;stroke-linejoin:round;stroke-miterlimit:10;" x1="388.88" y1="255.526" x2="381.731" y2="249.963"/>
			</g>
			<g>
				
					<line style="fill:none;stroke:#263238;stroke-linecap:round;stroke-linejoin:round;stroke-miterlimit:10;" x1="393.469" y1="380.359" x2="397.733" y2="374.944"/>
				<path style="fill:#92E3A9;stroke:#263238;stroke-miterlimit:10;" d="M396.123,377.013c0,0-0.46-2.76,1.84-5.29
					c1.384-1.522,9.062-5.739,10.12-2.99C409.233,371.724,401.643,378.623,396.123,377.013z"/>
				
					<line style="fill:none;stroke:#263238;stroke-linecap:round;stroke-linejoin:round;stroke-miterlimit:10;" x1="396.123" y1="377.013" x2="403.694" y2="371.152"/>
			</g>
			<g>
				
					<line style="fill:none;stroke:#263238;stroke-linecap:round;stroke-linejoin:round;stroke-miterlimit:10;" x1="392.443" y1="334.087" x2="397.733" y2="327.187"/>
				<path style="fill:#92E3A9;stroke:#263238;stroke-miterlimit:10;" d="M396.123,329.257c0,0-0.46-2.76,1.84-5.29
					c1.384-1.522,9.062-5.739,10.12-2.99C409.233,323.968,401.643,330.867,396.123,329.257z"/>
				
					<line style="fill:none;stroke:#263238;stroke-linecap:round;stroke-linejoin:round;stroke-miterlimit:10;" x1="396.123" y1="329.257" x2="403.694" y2="323.396"/>
			</g>
			<g>
				
					<line style="fill:none;stroke:#263238;stroke-linecap:round;stroke-linejoin:round;stroke-miterlimit:10;" x1="392.443" y1="310.517" x2="397.733" y2="303.617"/>
				<path style="fill:#92E3A9;stroke:#263238;stroke-miterlimit:10;" d="M396.123,305.687c0,0-0.46-2.76,1.84-5.29
					c1.384-1.522,9.062-5.739,10.12-2.99C409.233,300.397,401.643,307.297,396.123,305.687z"/>
				
					<line style="fill:none;stroke:#263238;stroke-linecap:round;stroke-linejoin:round;stroke-miterlimit:10;" x1="396.123" y1="305.687" x2="403.694" y2="299.825"/>
			</g>
			<g>
				
					<line style="fill:none;stroke:#263238;stroke-linecap:round;stroke-linejoin:round;stroke-miterlimit:10;" x1="392.443" y1="279.363" x2="397.733" y2="272.463"/>
				<path style="fill:#92E3A9;stroke:#263238;stroke-miterlimit:10;" d="M396.123,274.533c0,0-0.46-2.76,1.84-5.29
					c1.384-1.522,9.062-5.739,10.12-2.99C409.233,269.243,401.643,276.143,396.123,274.533z"/>
				
					<line style="fill:none;stroke:#263238;stroke-linecap:round;stroke-linejoin:round;stroke-miterlimit:10;" x1="396.123" y1="274.533" x2="403.694" y2="268.671"/>
			</g>
			<g>
				
					<line style="fill:none;stroke:#263238;stroke-linecap:round;stroke-linejoin:round;stroke-miterlimit:10;" x1="392.671" y1="252.476" x2="397.857" y2="248.43"/>
				<path style="fill:#92E3A9;stroke:#263238;stroke-miterlimit:10;" d="M396.123,250.04c0,0-0.46-2.76,1.84-5.29
					c1.384-1.522,9.062-5.739,10.12-2.99C409.233,244.75,401.643,251.65,396.123,250.04z"/>
				
					<line style="fill:none;stroke:#263238;stroke-linecap:round;stroke-linejoin:round;stroke-miterlimit:10;" x1="396.123" y1="250.04" x2="403.694" y2="244.178"/>
				<path style="fill:#92E3A9;stroke:#263238;stroke-miterlimit:10;" d="M392.126,239.177c0,0-0.46-2.76,1.84-5.29
					c1.383-1.522,9.063-5.739,10.12-2.99C405.236,233.887,397.646,240.787,392.126,239.177z"/>
				
					<line style="fill:none;stroke:#263238;stroke-linecap:round;stroke-linejoin:round;stroke-miterlimit:10;" x1="392.126" y1="239.177" x2="399.697" y2="233.315"/>
				<path style="fill:#92E3A9;stroke:#263238;stroke-miterlimit:10;" d="M392.495,239.503c0,0-2.793,0.168-5.068-2.385
					c-1.368-1.536-4.757-9.614-1.912-10.377C388.61,225.911,394.675,234.182,392.495,239.503z"/>
				
					<line style="fill:none;stroke:#263238;stroke-linecap:round;stroke-linejoin:round;stroke-miterlimit:10;" x1="392.495" y1="239.503" x2="387.46" y2="231.358"/>
			</g>
		</g>
		<polygon style="fill:#263238;stroke:#263238;stroke-miterlimit:10;" points="399.006,438.139 382.085,438.139 379.969,395.404 
			401.121,395.404 		"/>
	</g>
</g>
<g id="Character_4">
	<g>
		<g>
			<polygon style="fill:#FFFFFF;stroke:#263238;stroke-linecap:round;stroke-linejoin:round;stroke-miterlimit:10;" points="
				671.771,355.422 683.086,438.139 678.794,438.139 665.918,355.422 			"/>
			<polygon style="fill:#FFFFFF;stroke:#263238;stroke-linecap:round;stroke-linejoin:round;stroke-miterlimit:10;" points="
				613.245,355.422 601.93,438.139 606.222,438.139 619.098,355.422 			"/>
			<polygon style="fill:#FFFFFF;stroke:#263238;stroke-linecap:round;stroke-linejoin:round;stroke-miterlimit:10;" points="
				583.592,355.422 572.277,438.139 576.569,438.139 589.444,355.422 			"/>
			<polygon style="fill:#FFFFFF;stroke:#263238;stroke-linecap:round;stroke-linejoin:round;stroke-miterlimit:10;" points="
				633.534,355.422 622.219,438.139 626.511,438.139 639.387,355.422 			"/>
		</g>
		<path style="fill:#FFFFFF;stroke:#263238;stroke-linecap:round;stroke-linejoin:round;stroke-miterlimit:10;" d="M685.469,279.66
			l-10.186,71.47h-43.309l10.346-73.563c0.515-3.466,3.49-6.032,6.994-6.032h29.163C682.802,271.535,686.113,275.383,685.469,279.66
			z"/>
		<path style="fill:#263238;stroke:#263238;stroke-linecap:round;stroke-linejoin:round;stroke-miterlimit:10;" d="M682.737,279.66
			l-10.186,71.47h-43.309l10.346-73.563c0.515-3.466,3.49-6.032,6.994-6.032h29.163C680.07,271.535,683.382,275.383,682.737,279.66z
			"/>
		
			<rect x="578.129" y="351.13" transform="matrix(-1 -1.224647e-16 1.224647e-16 -1 1254.9725 708.1126)" style="fill:#FFFFFF;stroke:#263238;stroke-linecap:round;stroke-linejoin:round;stroke-miterlimit:10;" width="98.714" height="5.853"/>
	</g>
	<g>
		<g>
			<path style="fill:#FFFFFF;stroke:#263238;stroke-linecap:round;stroke-linejoin:round;stroke-miterlimit:10;" d="
				M581.617,419.992l-3.447,5.037l-14.962,6.336c0,0-6.088,0.754-5.559,3.802c0.26,1.496,6.761,1.836,13.817,1.808
				c2.533-0.01,5.138-0.068,7.55-0.137c4.56-0.13,12.29-1.665,13.685-1.894c4.19-0.686,10.678-2.363,10.83-3.31
				c0.152-0.947-7.956-15.044-7.956-15.044L581.617,419.992z"/>
			<path style="fill:#263238;stroke:#263238;stroke-linecap:round;stroke-linejoin:round;stroke-miterlimit:10;" d="
				M554.919,329.976c4.04-2.571,40.037-12.508,40.037-12.508L652,316.366c0,0,3.476,8.466,4.076,18.481
				c0.314,5.248-1.831,10.427-5.926,13.726c-0.915,0.737-1.798,1.263-2.528,1.354c-2.918,0.365-69.115,0-69.115,0l17.184,66.368
				l-11.754,3.306c0,0-34.528-69.79-34.16-74.933C550.144,339.526,550.878,332.547,554.919,329.976z"/>
		</g>
		<path style="fill:#263238;stroke:#263238;stroke-linecap:round;stroke-linejoin:round;stroke-miterlimit:10;" d="M613.322,322.997
			c0,0-44.745,5.984-47.017,7.346c-7.346,4.408-5.877,13.591-5.877,13.591l16.529,76.769l14.325-1.102l-5.877-73.096"/>
		<path style="fill:#FFFFFF;stroke:#263238;stroke-linecap:round;stroke-linejoin:round;stroke-miterlimit:10;" d="M576.958,420.703
			l-4.216,4.413l-13.042,7.583c0,0-6.066,0.91-5.46,3.943c0.607,3.033,26.995,0.607,31.241,0.607c4.246,0,10.919-0.607,11.223-1.517
			c0.303-0.91-5.421-16.131-5.421-16.131L576.958,420.703z"/>
		<path style="fill:#92E3A9;stroke:#263238;stroke-linecap:round;stroke-linejoin:round;stroke-miterlimit:10;" d="M661.43,265.1
			c-0.32-4.165-3.845-6.248-5.927-7.69c-2.083-1.442-17.622-8.651-17.622-8.651c-5.767-1.282-29.477,4.005-29.477,4.005
			l-5.278,31.452l1.209,25.797l-8.356,5.301l-14.571,6.245c0,0,6.661,1.457,8.951,1.457s16.029-2.498,16.029-2.498l-8.535,4.371
			c0,0,18.943,1.457,28.31,3.331c9.367,1.874,13.947,5.829,13.947,5.829s-0.625,4.58-3.122,8.951
			c-2.498,4.371-5.013,7.13-5.013,7.13l15.649-0.203c0,0,6.642-2.555,8.307-10.049c1.665-7.494-3.747-25.604-3.747-25.604
			l0.353-2.38c2.471-0.062,10.125,0.124,11.779-4.82C664.623,306.149,661.75,269.265,661.43,265.1z"/>
		<path style="fill:#263238;stroke:#263238;stroke-linecap:round;stroke-linejoin:round;stroke-miterlimit:10;" d="M623.302,211.272
			c0,0-6.568-2.563-12.656,0.801c-6.088,3.364-7.53,9.612-6.408,14.899c1.122,5.287-0.32,12.496-0.32,12.496
			s-5.927,6.568-4.005,12.496c1.923,5.928,4.486,4.486,3.525,8.651c-0.961,4.165-4.486,3.845,0,9.612
			c4.486,5.767,9.452,6.248,13.137,4.005c3.685-2.243,4.966-8.651,4.966-8.651s-0.16-16.02,4.966-16.501
			c5.127-0.481,17.142,0.961,17.142,0.961s-7.53-7.69-7.53-16.821c0-9.132-2.563-18.584-5.287-20.346
			C628.108,211.111,623.302,211.272,623.302,211.272z"/>
		<path style="fill:#92E3A9;stroke:#263238;stroke-linecap:round;stroke-linejoin:round;stroke-miterlimit:10;" d="M596.849,285.648
			l-1.872,3.964c0,0-1.982,0.771-2.532,2.202c-0.551,1.431-0.551,2.752-0.551,2.752s-1.321,1.211-1.541,2.863
			s1.762,4.954,2.973,6.055c1.211,1.101,4.734,0.991,6.716,0.551c1.982-0.44,5.505-4.514,5.725-8.918s-1.211-9.799-2.642-10.9
			C601.693,283.115,597.84,285.207,596.849,285.648z"/>
		<path style="fill:#92E3A9;stroke:#263238;stroke-linecap:round;stroke-linejoin:round;stroke-miterlimit:10;" d="M633.234,245.555
			c0,0,0.481-1.762,1.602-1.121c1.121,0.641,3.524,3.044,3.524,3.044s0.641,9.292,0.641,11.374c0,2.083-0.32,3.204-0.32,3.204
			s-5.447-1.121-6.088-0.801s-7.85,3.685-7.85,3.685L633.234,245.555z"/>
		<path style="fill:#FFFFFF;stroke:#263238;stroke-linecap:round;stroke-linejoin:round;stroke-miterlimit:10;" d="M616.733,244.273
			c0,0,2.243,8.971,2.403,10.573c0.16,1.602,0.481,11.375,1.282,12.816c0.801,1.442,2.403,1.442,3.685,0.481
			c1.282-0.961,2.403-2.884,3.685-5.607c1.282-2.724,5.447-15.059,5.447-16.982c0-1.922-1.442-5.767-1.922-7.85
			c-0.481-2.083-1.282-5.607-1.282-5.607s-2.243,5.928-3.525,7.529C625.224,241.23,616.733,244.273,616.733,244.273z"/>
		<g>
			<path style="fill:#FFFFFF;stroke:#263238;stroke-linecap:round;stroke-linejoin:round;stroke-miterlimit:10;" d="
				M618.335,213.514c0,0-8.491,0.801-10.093,4.806s-1.762,12.816-0.32,17.302c1.442,4.486,6.088,9.612,8.331,9.772
				c2.243,0.16,8.971-1.282,10.734-3.685c1.762-2.403,3.685-7.69,3.685-7.69s4.325-1.282,4.486-4.806s-0.32-5.126-1.762-4.966
				c-1.442,0.16-2.884,1.282-2.884,1.282s-2.884-2.563-4.005-4.486c-1.121-1.922-2.083-2.083-2.083-3.845
				C624.423,215.437,620.899,213.675,618.335,213.514z"/>
			<path style="fill:#263238;" d="M618.656,225.61c0,0.752-0.323,1.362-0.721,1.362c-0.398,0-0.721-0.61-0.721-1.362
				c0-0.752,0.323-1.362,0.721-1.362C618.333,224.248,618.656,224.858,618.656,225.61z"/>
			<path style="fill:#263238;" d="M610.085,227.532c0,0.752-0.323,1.362-0.721,1.362c-0.398,0-0.721-0.61-0.721-1.362
				c0-0.752,0.323-1.362,0.721-1.362C609.762,226.171,610.085,226.78,610.085,227.532z"/>
			<path style="fill:none;stroke:#263238;stroke-linecap:round;stroke-linejoin:round;stroke-miterlimit:10;" d="M611.286,232.258
				c0,0,1.442,1.121,3.204-0.32"/>
			<path style="fill:none;stroke:#263238;stroke-linecap:round;stroke-linejoin:round;stroke-miterlimit:10;" d="M612.087,237.064
				c0,0,4.646,0.641,7.369-2.884"/>
			<path style="fill:none;stroke:#263238;stroke-linecap:round;stroke-linejoin:round;stroke-miterlimit:10;" d="M615.131,223.607
				c0,0,2.723-2.563,5.927-0.481"/>
			<path style="fill:none;stroke:#263238;stroke-linecap:round;stroke-linejoin:round;stroke-miterlimit:10;" d="M611.126,225.049
				c0,0-2.563-1.602-3.845,1.602"/>
		</g>
		<path style="fill:#FFFFFF;stroke:#263238;stroke-linecap:round;stroke-linejoin:round;stroke-miterlimit:10;" d="M595.36,294.986
			c0,0-3.455,2.126-4.341,4.607c-0.886,2.481,0.62,5.582,2.924,6.999c2.304,1.418,4.075-0.177,5.227-1.772
			c1.152-1.595,1.418-5.404,1.152-7.265S597.575,294.1,595.36,294.986z"/>
		<polygon style="fill:#263238;stroke:#263238;stroke-linecap:round;stroke-linejoin:round;stroke-miterlimit:10;" points="
			594.756,262.53 579.18,252.68 596.753,290.752 608.068,300.071 632.962,295.012 619.516,256.939 		"/>
		<g>
			<path style="fill:#FFFFFF;stroke:#263238;stroke-linecap:round;stroke-linejoin:round;stroke-miterlimit:10;" d="
				M656.944,308.835c0,0,0.641-4.326-1.602-6.728c-2.243-2.403-10.413-3.364-11.855-3.685c-1.442-0.32-5.127-1.602-5.127-1.602
				s-2.243-5.607-3.204-6.728c-0.961-1.121-4.806-2.724-4.806-2.724l0.961,2.563c0,0-8.699-5.807-9.363-6.472
				c-0.664-0.665-2.126,0.266-1.861,1.063c0.266,0.797,3.588,4.386,5.183,5.848s1.993,2.126,1.993,2.126s-5.981-4.651-8.506-5.449
				c-2.525-0.797-3.455,0-2.658,1.196c0.797,1.196,3.455,2.791,4.519,3.721c1.063,0.93,1.728,1.595,1.728,1.595
				s-4.253-3.588-5.582-3.588c-1.329,0-0.93,1.196,0.266,2.259c1.196,1.063,1.196,1.063,1.196,1.063s-0.664,1.728,0.399,2.525
				c1.063,0.797,5.316,4.519,6.113,5.449c0.797,0.93,2.671,2.004,5.449,2.658c3.538,0.833,6.596,0.942,6.596,0.942
				s6.03,6.501,10.549,7.032C651.851,312.432,655.658,310.156,656.944,308.835z"/>
			<path style="fill:none;stroke:#263238;stroke-linecap:round;stroke-linejoin:round;stroke-miterlimit:10;" d="M622.347,293.56
				c0,0,3.915,3.281,4.141,3.582"/>
			
				<line style="fill:none;stroke:#263238;stroke-linecap:round;stroke-linejoin:round;stroke-miterlimit:10;" x1="627.264" y1="292.497" x2="629.199" y2="294.054"/>
			
				<line style="fill:none;stroke:#263238;stroke-linecap:round;stroke-linejoin:round;stroke-miterlimit:10;" x1="631.312" y1="289.931" x2="633.569" y2="291.04"/>
			
				<line style="fill:none;stroke:#263238;stroke-linecap:round;stroke-linejoin:round;stroke-miterlimit:10;" x1="618.227" y1="293.294" x2="624.228" y2="298.197"/>
		</g>
		<path style="fill:none;stroke:#263238;stroke-linecap:round;stroke-linejoin:round;stroke-miterlimit:10;" d="M646.83,298.207
			c0,0,5.678-4.368,13.322,1.092"/>
		<path style="fill:none;stroke:#263238;stroke-linecap:round;stroke-linejoin:round;stroke-miterlimit:10;" d="M646.503,296.351
			c0,0,1.254-22.694,2.811-25.816c1.557-3.121,6.908-9.237,6.908-9.237"/>
		<path style="fill:none;stroke:#263238;stroke-linecap:round;stroke-linejoin:round;stroke-miterlimit:10;" d="M648.686,295.15
			c0,0,5.351-3.276,9.937-2.621"/>
		<g>
			<path style="fill:#FFFFFF;stroke:#263238;stroke-linecap:round;stroke-linejoin:round;stroke-miterlimit:10;" d="
				M598.372,290.556c0,0-3.455,1.329-3.632,2.126c-0.177,0.797,0.354,7.442,0.797,8.328c0.443,0.886,0.975,0.974,1.417,0.974
				c0.443,0,4.075-0.443,5.139-1.063c1.063-0.62,0.974-1.595,0.974-1.595l-1.063-0.532c0,0,1.063-0.709,1.063-1.506
				c0-0.797-0.531-1.329-0.531-1.329s3.012-0.62,2.392-1.86c-0.62-1.24-2.746-1.683-2.746-1.683s1.595-1.772-1.24-2.392
				C600.202,289.863,598.372,290.556,598.372,290.556z"/>
			
				<line style="fill:none;stroke:#263238;stroke-linecap:round;stroke-linejoin:round;stroke-miterlimit:10;" x1="595.449" y1="294.012" x2="602.182" y2="292.417"/>
			
				<line style="fill:none;stroke:#263238;stroke-linecap:round;stroke-linejoin:round;stroke-miterlimit:10;" x1="602.536" y1="295.961" x2="595.892" y2="296.492"/>
			<path style="fill:none;stroke:#263238;stroke-linecap:round;stroke-linejoin:round;stroke-miterlimit:10;" d="M602.005,298.796
				c0,0-5.05,1.063-6.379,1.063"/>
		</g>
	</g>
</g>
<g id="Character_3">
	<g>
		<g>
			<polygon style="fill:#FFFFFF;stroke:#263238;stroke-linecap:round;stroke-linejoin:round;stroke-miterlimit:10;" points="
				451.817,355.422 440.502,438.139 444.794,438.139 457.67,355.422 			"/>
			<polygon style="fill:#FFFFFF;stroke:#263238;stroke-linecap:round;stroke-linejoin:round;stroke-miterlimit:10;" points="
				510.343,355.422 521.658,438.139 517.367,438.139 504.491,355.422 			"/>
			<polygon style="fill:#FFFFFF;stroke:#263238;stroke-linecap:round;stroke-linejoin:round;stroke-miterlimit:10;" points="
				539.996,355.422 551.311,438.139 547.02,438.139 534.144,355.422 			"/>
			<polygon style="fill:#FFFFFF;stroke:#263238;stroke-linecap:round;stroke-linejoin:round;stroke-miterlimit:10;" points="
				490.054,355.422 501.369,438.139 497.077,438.139 484.202,355.422 			"/>
		</g>
		<path style="fill:#FFFFFF;stroke:#263238;stroke-linecap:round;stroke-linejoin:round;stroke-miterlimit:10;" d="M438.12,279.66
			l10.186,71.47h43.309l-10.346-73.563c-0.515-3.466-3.49-6.032-6.994-6.032h-29.163C440.787,271.535,437.475,275.383,438.12,279.66
			z"/>
		<path style="fill:#263238;stroke:#263238;stroke-linecap:round;stroke-linejoin:round;stroke-miterlimit:10;" d="M440.851,279.66
			l10.186,71.47h43.309L484,277.567c-0.515-3.466-3.49-6.032-6.994-6.032h-29.163C443.518,271.535,440.206,275.383,440.851,279.66z"
			/>
		
			<rect x="446.745" y="351.13" style="fill:#FFFFFF;stroke:#263238;stroke-linecap:round;stroke-linejoin:round;stroke-miterlimit:10;" width="98.714" height="5.853"/>
	</g>
	<g>
		<g>
			<path style="fill:#FFFFFF;stroke:#263238;stroke-linecap:round;stroke-linejoin:round;stroke-miterlimit:10;" d="
				M538.075,419.992l3.447,5.037l14.962,6.336c0,0,6.088,0.754,5.559,3.802c-0.26,1.496-6.761,1.836-13.817,1.808
				c-2.533-0.01-5.138-0.068-7.55-0.137c-4.56-0.13-12.29-1.665-13.685-1.894c-4.191-0.686-10.678-2.363-10.83-3.31
				c-0.152-0.947,7.956-15.044,7.956-15.044L538.075,419.992z"/>
			<path style="fill:#FFFFFF;stroke:#263238;stroke-linecap:round;stroke-linejoin:round;stroke-miterlimit:10;" d="
				M552.558,436.149c-5.639,0.384-21.505-1.817-26.806-3.938c-3.584-1.434-7.024-2.104-8.88-2.389
				c-0.464,0.959-0.742,1.629-0.713,1.811c0.152,0.947,6.639,2.624,10.83,3.31c1.395,0.228,9.125,1.764,13.685,1.894
				c2.413,0.069,5.017,0.127,7.55,0.137c4.986,0.02,9.683-0.146,12.109-0.772C557.952,436.06,555.094,435.977,552.558,436.149z"/>
			<path style="fill:#7A7A7A;stroke:#263238;stroke-linecap:round;stroke-linejoin:round;stroke-miterlimit:10;" d="
				M564.773,329.976c-4.04-2.571-40.037-12.508-40.037-12.508l-57.043-1.102c0,0-5.837,26.265-3.283,31.737
				c0,0,4.742,1.459,7.661,1.824c2.918,0.365,69.115,0,69.115,0l-17.184,66.368l11.754,3.306c0,0,34.528-69.79,34.16-74.933
				C569.548,339.526,568.813,332.547,564.773,329.976z"/>
		</g>
		<path style="fill:#7A7A7A;stroke:#263238;stroke-linecap:round;stroke-linejoin:round;stroke-miterlimit:10;" d="M506.369,322.997
			c0,0,44.745,5.984,47.017,7.346c7.346,4.408,5.877,13.591,5.877,13.591l-16.529,76.769l-14.325-1.102l5.877-73.096"/>
		<path style="fill:#FFFFFF;stroke:#263238;stroke-linecap:round;stroke-linejoin:round;stroke-miterlimit:10;" d="M542.734,420.703
			l4.216,4.413l13.042,7.583c0,0,6.066,0.91,5.46,3.943c-0.607,3.033-26.995,0.607-31.241,0.607s-10.919-0.607-11.223-1.517
			c-0.303-0.91,5.421-16.131,5.421-16.131L542.734,420.703z"/>
		<path style="fill:#FFFFFF;stroke:#263238;stroke-linecap:round;stroke-linejoin:round;stroke-miterlimit:10;" d="M565.452,436.642
			c0.041-0.206,0.046-0.4,0.03-0.587c-2.701,0.414-6.833,0.107-12.923,0.094c-7.884-0.016-25.949-1.876-29.128-2.426
			c-0.323,1.078-0.503,1.829-0.443,2.009c0.303,0.91,6.976,1.517,11.223,1.517C538.457,437.249,564.845,439.676,565.452,436.642z"/>
		<path style="fill:#FFFFFF;stroke:#263238;stroke-linecap:round;stroke-linejoin:round;stroke-miterlimit:10;" d="M527.04,423.296
			l12.785,0.228l2.908-2.821l-14.325-1.102C528.409,419.601,527.824,421.155,527.04,423.296z"/>
		<path style="fill:#FFFFFF;stroke:#263238;stroke-linecap:round;stroke-linejoin:round;stroke-miterlimit:10;" d="M490.22,318.951
			h21.477c0,0,0.25-50.695-0.999-58.187c-1.249-7.492-3.746-16.482-4.995-19.479c-1.249-2.997-3.496-4.995-4.994-6.243
			c-1.498-1.249-9.837,1.716-10.662,7.351C489.221,248.028,490.22,318.951,490.22,318.951z"/>
		<path style="fill:#92E3A9;stroke:#263238;stroke-linecap:round;stroke-linejoin:round;stroke-miterlimit:10;" d="M515.56,245.155
			l13.642,39.057c0,0-1.289,8.285-3.682,9.389c-2.393,1.105-6.075-0.552-6.075-0.552l-1.841-2.393l-2.946-37.189L515.56,245.155z"/>
		<path style="fill:#92E3A9;stroke:#263238;stroke-linecap:round;stroke-linejoin:round;stroke-miterlimit:10;" d="M503.311,237.406
			c0,0,2,7.25,4.25,14.749c2.25,7.5,1.25,66.65,1.25,66.65l8.499-0.25c0,0,0-24.903,0.5-34.402c0.5-9.499-2.25-38.998-2.25-38.998
			L503.311,237.406z"/>
		<g>
			<path style="fill:#FFFFFF;stroke:#263238;stroke-linecap:round;stroke-linejoin:round;stroke-miterlimit:10;" d="
				M487.842,223.878l-2.645,7.641l-1.616,3.527c0,0,3.233,4.408,6.466,7.347c3.233,2.939,5.29,4.849,5.584,6.025
				c0.294,1.176,1.323,1.763,2.792,1.029c1.47-0.735,3.086-2.939,3.527-4.114c0.441-1.176,0.588-5.584,0.588-5.584
				s5.143,0.735,6.319-0.588c1.176-1.323,4.996-11.756,5.29-14.107s1.469-11.756,1.029-13.225s-26.744-3.086-26.744-3.086
				S489.018,220.058,487.842,223.878z"/>
			<path style="fill:#263238;stroke:#263238;stroke-linecap:round;stroke-linejoin:round;stroke-miterlimit:10;" d="M488.43,218.294
				c0,0,3.086,1.469,3.527,0.735c0.441-0.735,0.441-3.086,0.441-3.086s4.261,0.735,4.996,0.147s-0.882-3.233,0.441-3.674
				c1.323-0.441,6.025,1.029,9.258,1.616c3.233,0.588,7.2-0.147,8.082-2.204c0.882-2.057,1.176-7.641-2.351-10.58
				c-3.527-2.939-12.637-8.229-18.809-6.319c-6.172,1.91-10.58,5.878-10.874,12.49c-0.294,6.613,1.616,9.258,1.616,9.258
				L488.43,218.294z"/>
			<path style="fill:#FFFFFF;stroke:#263238;stroke-linecap:round;stroke-linejoin:round;stroke-miterlimit:10;" d="
				M489.753,220.499c0,0-2.351-5.878-4.996-3.821s1.47,8.229,2.792,8.817c1.323,0.588,2.057-0.441,2.057-0.441"/>
			<path style="fill:none;stroke:#263238;stroke-linecap:round;stroke-linejoin:round;stroke-miterlimit:10;" d="M508.264,221.328
				c0,0-3.879-1.185-6.789-0.215"/>
			<path style="fill:none;stroke:#263238;stroke-linecap:round;stroke-linejoin:round;stroke-miterlimit:10;" d="M511.646,222.036
				c0,0,0.935-2.711,2.524-2.617"/>
			<path style="fill:none;stroke:#263238;stroke-linecap:round;stroke-linejoin:round;stroke-miterlimit:10;" d="M511.272,225.588
				c0,0,1.122,3.739,0.748,4.673c-0.374,0.935-2.897,1.028-3.832,0.654"/>
			<path style="fill:none;stroke:#263238;stroke-linecap:round;stroke-linejoin:round;stroke-miterlimit:10;" d="M502.953,232.318
				c0,0,0.748,1.776,5.982,1.402"/>
			<path style="fill:none;stroke:#263238;stroke-linecap:round;stroke-linejoin:round;stroke-miterlimit:10;" d="M502.86,224.279
				c0,0,1.402,1.215,4.113,0.28"/>
			<path style="fill:none;stroke:#263238;stroke-linecap:round;stroke-linejoin:round;stroke-miterlimit:10;" d="M511.646,223.999
				c0,0,1.028,0.28,2.243-0.654"/>
			<path style="fill:none;stroke:#263238;stroke-linecap:round;stroke-linejoin:round;stroke-miterlimit:10;" d="M502.537,239.748
				c0,0-3.227-1.435-4.007-2.059c-0.78-0.624-3.901-4.212-4.525-5.617"/>
		</g>
		<path style="fill:#92E3A9;stroke:#263238;stroke-linecap:round;stroke-linejoin:round;stroke-miterlimit:10;" d="M498.199,310.853
			c-0.062-9.404-0.37-47.985-1.27-51.811c-1.026-4.361-1.299-10.624-1.299-10.624s2.325-2.203-1.78-7.334
			c-4.105-5.131-8.115-7.92-8.115-7.92s-2.964-1.248-3.588-0.468c-0.624,0.78-2.808,5.461-2.808,5.461s-16.07,7.957-18.41,9.985
			c-2.34,2.028,0.78,63.812,0.78,63.812l2.476,0.065l-5.247,29.517l5.472,6.566c0,0,6.202-12.038,9.485-16.416
			c3.283-4.378,22.617-10.579,22.617-10.579h5.107L498.199,310.853z"/>
		<path style="fill:#92E3A9;stroke:#263238;stroke-linecap:round;stroke-linejoin:round;stroke-miterlimit:10;" d="M463.236,246.442
			c0,0-2.731,0.975-5.462,5.267c-2.731,4.292-9.754,46.817-9.558,50.523c0.195,3.706,0.585,5.852,2.341,6.827
			c1.756,0.975,5.267,1.756,9.754,2.146c4.486,0.39,10.729-2.731,10.729-2.731s0.39-7.803,0-11.509
			c-0.39-3.706,1.756-16.776,1.756-18.922c0-2.146,1.951-7.022,0-11.314c-1.951-4.292-4.292-13.265-4.292-13.265"/>
		<path style="fill:none;stroke:#263238;stroke-linecap:round;stroke-linejoin:round;stroke-miterlimit:10;" d="M454.263,301.061
			c0,0,1.756-6.827,6.827-7.803c5.072-0.975,8.778-0.39,8.778-0.39"/>
		<g>
			<polygon style="fill:#263238;stroke:#263238;stroke-linecap:round;stroke-linejoin:round;stroke-miterlimit:10;" points="
				524.132,246.952 500.289,289.849 525.173,299.22 548.079,256.427 			"/>
			<polygon style="fill:#263238;stroke:#263238;stroke-linecap:round;stroke-linejoin:round;stroke-miterlimit:10;" points="
				548.079,256.427 555.264,247.993 533.503,288.184 525.173,299.22 			"/>
		</g>
		<g>
			<path style="fill:#FFFFFF;stroke:#263238;stroke-linecap:round;stroke-linejoin:round;stroke-miterlimit:10;" d="
				M501.758,276.237c0,0,2.159-0.883,3.729-1.963c1.57-1.079,3.239-3.435,3.926-3.14c0.687,0.294,1.08,0.687,0.196,2.355
				c-0.883,1.668-2.65,2.944-2.65,2.944L501.758,276.237z"/>
			<path style="fill:#FFFFFF;stroke:#263238;stroke-linecap:round;stroke-linejoin:round;stroke-miterlimit:10;" d="
				M502.617,293.264c0.785-0.098,3.435-0.294,5.202-0.981c1.766-0.687,10.001-3.407,10.832-4.238
				c0.831-0.831,0.831-1.662,0.831-1.662s1.246-0.623,1.87-1.35c0.623-0.727,0.623-1.662,0.623-1.662s1.766-1.247,1.247-2.285
				c-0.519-1.039-2.493-1.558-2.493-1.558s0.623-0.312,1.039-1.35c0.416-1.039,0.104-1.454-1.039-1.662
				c-1.143-0.208-17.762-0.415-17.762-0.415s-1.919-0.207-2.803,1.265s-3.337,6.477-3.631,6.87
				c-0.294,0.392-24.732,9.814-25.615,10.305c-0.883,0.491-3.631,2.846-3.239,6.968c0.393,4.122,2.107,6.081,3.36,6.966
				c1.253,0.885,17.741-8.536,20.488-10.008c2.748-1.472,7.851-4.711,7.851-4.711L502.617,293.264z"/>
			
				<line style="fill:none;stroke:#263238;stroke-linecap:round;stroke-linejoin:round;stroke-miterlimit:10;" x1="520.728" y1="279.528" x2="508.506" y2="279.721"/>
			<path style="fill:none;stroke:#263238;stroke-linecap:round;stroke-linejoin:round;stroke-miterlimit:10;" d="M521.974,283.371
				c0,0-11.212,0.962-11.506,1.06"/>
			<path style="fill:none;stroke:#263238;stroke-linecap:round;stroke-linejoin:round;stroke-miterlimit:10;" d="M519.482,286.383
				c0,0-5.578,1.287-8.424,2.072"/>
		</g>
		<g>
			<path style="fill:#FFFFFF;stroke:#263238;stroke-linecap:round;stroke-linejoin:round;stroke-miterlimit:10;" d="
				M541.832,275.065c0,0-3.124,1.145-3.332,1.874c-0.208,0.729,0.417,1.145,1.249,1.145s2.082-0.104,2.811-1.041
				C543.29,276.106,542.665,275.377,541.832,275.065z"/>
			<path style="fill:#FFFFFF;stroke:#263238;stroke-linecap:round;stroke-linejoin:round;stroke-miterlimit:10;" d="M539.75,278.084
				c0,0-3.019,0.312-3.019,1.249c0,0.937-0.521,1.562,0.208,1.77c0.729,0.208,4.685,0.208,5.727-0.208
				c1.041-0.417,1.458-1.145,1.041-1.874C543.29,278.292,540.27,277.98,539.75,278.084z"/>
			<path style="fill:#FFFFFF;stroke:#263238;stroke-linecap:round;stroke-linejoin:round;stroke-miterlimit:10;" d="
				M542.665,280.895c0,0,0.833,1.562,0.312,2.395c-0.521,0.833-4.894,1.249-6.247,1.249c-1.354,0-2.082-1.249-1.354-2.082
				c0.729-0.833,3.54-0.937,3.54-0.937S542.04,281.103,542.665,280.895z"/>
			<path style="fill:#FFFFFF;stroke:#263238;stroke-linecap:round;stroke-linejoin:round;stroke-miterlimit:10;" d="
				M541.312,284.331c0,0-0.833,1.354-1.458,1.978c-0.625,0.625-4.685,0.521-5.102,0.104s-0.104-1.666,0.937-1.77
				C536.73,284.539,541.312,284.331,541.312,284.331z"/>
		</g>
	</g>
</g>
<g id="Table_2">
	<g>
		<g>
			<g>
				
					<rect x="562.058" y="311.495" style="fill:#FFFFFF;stroke:#263238;stroke-linecap:round;stroke-linejoin:round;stroke-miterlimit:10;" width="13.599" height="121.119"/>
				
					<rect x="533.524" y="430.606" style="fill:#FFFFFF;stroke:#263238;stroke-linecap:round;stroke-linejoin:round;stroke-miterlimit:10;" width="71.032" height="7.533"/>
			</g>
			<g>
				<polygon style="fill:#92E3A9;stroke:#263238;stroke-linecap:round;stroke-linejoin:round;stroke-miterlimit:10;" points="
					707.775,387.257 695.353,309.644 442.148,309.644 429.726,387.257 448.57,395.717 447.417,405.332 577.404,405.332 
					600.863,405.332 690.084,405.332 688.931,395.717 				"/>
				
					<line style="fill:#FFFFFF;stroke:#263238;stroke-linecap:round;stroke-linejoin:round;stroke-miterlimit:10;" x1="448.57" y1="395.717" x2="459.723" y2="314.956"/>
				
					<line style="fill:#FFFFFF;stroke:#263238;stroke-linecap:round;stroke-linejoin:round;stroke-miterlimit:10;" x1="688.931" y1="395.717" x2="681.239" y2="318.033"/>
				
					<line style="fill:none;stroke:#263238;stroke-linecap:round;stroke-linejoin:round;stroke-miterlimit:10;" x1="656.828" y1="344.127" x2="655.088" y2="318.033"/>
				
					<line style="fill:none;stroke:#263238;stroke-linecap:round;stroke-linejoin:round;stroke-miterlimit:10;" x1="481.644" y1="316.879" x2="480.106" y2="386.103"/>
			</g>
		</g>
		<g>
			<path style="fill:#92E3A9;" d="M557.536,291.036l-2.083,15.919c-0.154,1.153,0.742,2.178,1.905,2.178h7.709
				c1.163,0,2.06-1.025,1.905-2.178l-2.083-15.919H557.536z"/>
			<g>
				<path style="fill:none;stroke:#263238;stroke-linecap:round;stroke-linejoin:round;stroke-miterlimit:10;" d="M557.304,304.708
					c0,0,3.482-16.323,6.094-23.941"/>
				<path style="fill:#92E3A9;" d="M562.387,274.068c0,0-2.032-3.193-2.516-2.322c-0.484,0.871,1.064,2.516,1.064,2.516
					s-3.096-1.258-3.58-0.387c-0.484,0.871,2.032,1.935,2.322,1.935c0.29,0-3.774,0.097-3.483,1.355
					c0.29,1.258,2.322,0.29,2.613,0.097c0.29-0.193-2.806,1.935-1.451,2.322c1.355,0.387,3.096-1.064,3.096-1.064
					s-2.129,2.129-0.968,2.613c1.161,0.484,2.129-1.258,2.129-1.258s-1.258,2.419-0.387,2.516c0.871,0.097,1.548-0.677,1.548-0.677
					s0.387,2.129,1.064,1.839c0.677-0.29,1.258-3,1.258-3s1.161,2.806,1.451,2.225c0.29-0.581,0.097-1.839,0.097-1.839
					s1.355,1.548,1.645,0.581c0.29-0.968-0.387-1.645-0.387-1.645s1.548,0.677,1.451-0.484c-0.097-1.161-1.645-1.838-1.645-1.838
					s1.064-0.677,0.677-1.161c-0.387-0.484-1.839-0.484-1.839-0.484s1.548-1.258,0.968-1.451c-0.581-0.193-2.129,0.29-2.129,0.29
					s0.484-2.709-0.194-2.516c-0.677,0.194-1.161,1.548-1.161,1.548s-0.29-3.096-1.064-2.516
					C562.193,271.842,562.387,274.068,562.387,274.068z"/>
				<path style="fill:#FFFFFF;" d="M565.615,277.482c-0.126,0.656-0.908,1.057-1.748,0.897c-0.84-0.161-1.419-0.823-1.293-1.479
					c0.126-0.656,0.908-1.057,1.748-0.897C565.162,276.164,565.74,276.826,565.615,277.482z"/>
			</g>
			<path style="fill:none;stroke:#263238;stroke-linecap:round;stroke-linejoin:round;stroke-miterlimit:10;" d="M564.524,284.881
				h-6.622l-2.922,21.821c-0.206,1.535,0.988,2.899,2.537,2.899h7.393c1.549,0,2.742-1.364,2.537-2.899L564.524,284.881z"/>
			
				<rect x="557.299" y="284.621" style="fill:#FFFFFF;stroke:#263238;stroke-linecap:round;stroke-linejoin:round;stroke-miterlimit:10;" width="7.84" height="1.727"/>
		</g>
	</g>
</g>
<g id="Character_2">
	<g>
		<g>
			<polygon style="fill:#FFFFFF;stroke:#263238;stroke-linecap:round;stroke-linejoin:round;stroke-miterlimit:10;" points="
				338.959,355.422 350.274,438.139 345.982,438.139 333.106,355.422 			"/>
			<polygon style="fill:#FFFFFF;stroke:#263238;stroke-linecap:round;stroke-linejoin:round;stroke-miterlimit:10;" points="
				280.433,355.422 269.118,438.139 273.41,438.139 286.285,355.422 			"/>
			<polygon style="fill:#FFFFFF;stroke:#263238;stroke-linecap:round;stroke-linejoin:round;stroke-miterlimit:10;" points="
				250.779,355.422 239.464,438.139 243.756,438.139 256.632,355.422 			"/>
			<polygon style="fill:#FFFFFF;stroke:#263238;stroke-linecap:round;stroke-linejoin:round;stroke-miterlimit:10;" points="
				300.722,355.422 289.407,438.139 293.699,438.139 306.574,355.422 			"/>
		</g>
		<path style="fill:#FFFFFF;stroke:#263238;stroke-linecap:round;stroke-linejoin:round;stroke-miterlimit:10;" d="M352.656,279.66
			l-10.186,71.47h-43.309l10.346-73.563c0.515-3.466,3.49-6.032,6.994-6.032h29.163C349.989,271.535,353.301,275.383,352.656,279.66
			z"/>
		<path style="fill:#263238;stroke:#263238;stroke-linecap:round;stroke-linejoin:round;stroke-miterlimit:10;" d="M349.925,279.66
			l-10.186,71.47H296.43l10.346-73.563c0.515-3.466,3.49-6.032,6.994-6.032h29.163C347.258,271.535,350.57,275.383,349.925,279.66z"
			/>
		
			<rect x="245.317" y="351.13" transform="matrix(-1 -1.224647e-16 1.224647e-16 -1 589.348 708.1126)" style="fill:#FFFFFF;stroke:#263238;stroke-linecap:round;stroke-linejoin:round;stroke-miterlimit:10;" width="98.714" height="5.853"/>
	</g>
	<g>
		<g>
			<path style="fill:#FFFFFF;stroke:#263238;stroke-linecap:round;stroke-linejoin:round;stroke-miterlimit:10;" d="
				M272.642,204.264c0,0-4.752,7.077-4.512,10.056c0.221,2.745-0.232,4.694-1.929,6.596c-1.555,1.742-3.142,2.513-1.414,3.77
				c1.728,1.257,1.728,2.199,1.728,2.199s0.943,6.755,1.257,8.169c0.314,1.414,2.671,1.885,4.556,1.885
				c1.885,0,3.299,0.471,6.284,3.456c2.985,2.985,3.613,7.854,3.613,7.854l13.353-11.311c0,0-1.728-2.356-0.785-4.084
				s5.341-2.671,6.755-7.069c1.414-4.398,0.314-10.525,0.314-10.525s-0.785-5.969-6.755-10.996
				C289.137,199.237,278.298,199.237,272.642,204.264z"/>
			<path style="fill:#263238;stroke:#263238;stroke-linecap:round;stroke-linejoin:round;stroke-miterlimit:10;" d="M301.861,215.26
				c0,0-0.785-5.969-6.755-10.996s-16.809-5.027-22.464,0c0,0-0.411,0.48-1.006,1.23l0.221,0.184c0,0,2.985-0.943,7.069-0.628
				c4.084,0.314,5.498,2.828,4.399,4.398c-1.1,1.571-2.513,3.456-1.1,4.713c1.414,1.257,2.356,1.571,3.142,3.613
				c0.785,2.042,3.142,1.1,3.77,0.471c0.628-0.628,4.241-1.885,5.027,1.728c0.785,3.613-1.571,6.284-3.142,7.697
				c-1.337,1.204-0.612,4.901,3.604,5.589c0.043-0.137,0.094-0.273,0.166-0.405c0.943-1.728,5.341-2.671,6.755-7.069
				C302.961,221.386,301.861,215.26,301.861,215.26z"/>
			<path style="fill:#263238;stroke:#263238;stroke-linecap:round;stroke-linejoin:round;stroke-miterlimit:10;" d="
				M296.834,206.149c0,0-0.314-5.969,4.398-5.969s9.111,8.169,8.483,12.567c-0.628,4.398-3.927,5.498-6.126,4.556
				C301.39,216.359,296.834,206.149,296.834,206.149z"/>
			<path style="fill:#263238;" d="M272.35,218.011c0,0.957-0.337,1.733-0.753,1.733c-0.416,0-0.753-0.776-0.753-1.733
				c0-0.957,0.337-1.733,0.753-1.733C272.013,216.279,272.35,217.054,272.35,218.011z"/>
			<path style="fill:none;stroke:#263238;stroke-linecap:round;stroke-linejoin:round;stroke-miterlimit:10;" d="M270.09,214.32
				c0,0,1.206-2.411,4.672,0.301"/>
			<path style="fill:none;stroke:#263238;stroke-linecap:round;stroke-linejoin:round;stroke-miterlimit:10;" d="M268.432,228.183
				c0,0,2.11-0.301,4.069-1.959"/>
			<path style="fill:none;stroke:#263238;stroke-linecap:round;stroke-linejoin:round;stroke-miterlimit:10;" d="M291.022,227.67
				c0,0-1.945,1.267-3,1.116c-1.055-0.151-1.507-1.959-1.507-1.959"/>
		</g>
		<g>
			<path style="fill:#FFFFFF;stroke:#263238;stroke-linecap:round;stroke-linejoin:round;stroke-miterlimit:10;" d="
				M226.288,350.011c0,0-4.342,48.456-5.24,52.199c-0.898,3.743-3.144,7.186-3.144,7.186s0.299-3.144-2.396-3.443
				c-2.695-0.299-4.042,1.647-4.791,4.192c-0.749,2.545-1.946,4.042-1.946,4.042s-11.528,6.587-14.372,7.186
				c-2.845,0.599-3.144,3.144-2.096,4.192s3.593,1.497,7.186,1.946c3.593,0.449,12.426,0.449,13.474,0.449
				c1.048,0,16.019-0.449,16.019-0.449l5.689-78.848C234.672,348.664,229.731,341.777,226.288,350.011z"/>
			<path style="fill:#92E3A9;stroke:#263238;stroke-linecap:round;stroke-linejoin:round;stroke-miterlimit:10;" d="
				M226.288,350.011c0,0-2.694,34.134-4.276,45.901c1.689,0.693,4.385,1.701,6.971,2.255c0.718,0.154,1.558,0.127,2.451-0.007
				l3.238-49.497C234.672,348.664,229.731,341.777,226.288,350.011z"/>
			<path style="fill:#FFFFFF;stroke:#263238;stroke-linecap:round;stroke-linejoin:round;stroke-miterlimit:10;" d="
				M230.126,413.813c-3.744,0.326-7.964-1.314-9.378-2.021c-1.497-0.749-2.845-2.395-2.845-2.395l-0.382-2.079
				c-0.328-0.656-0.924-1.243-2.014-1.365c-2.695-0.299-4.042,1.647-4.791,4.192c-0.749,2.545-1.946,4.042-1.946,4.042
				s-11.528,6.587-14.372,7.186c-2.845,0.599-3.144,3.144-2.096,4.192c1.048,1.048,3.593,1.497,7.186,1.946
				c3.593,0.449,12.426,0.449,13.474,0.449c1.048,0,16.019-0.449,16.019-0.449L230.126,413.813z"/>
		</g>
		<g>
			<path style="fill:#92E3A9;stroke:#263238;stroke-linecap:round;stroke-linejoin:round;stroke-miterlimit:10;" d="
				M284.724,324.565c0,0-44.601-0.661-50.183,1.648c-5.582,2.31-8.277,10.202-8.277,14.629c0,4.427-0.385,53.461-0.77,60.006
				c-0.385,6.545-1.347,10.395-1.347,10.395s-3.272-3.465-4.812-1.732c-1.54,1.732-2.887,4.62-2.887,5.967
				c0,1.347-5.775,6.16-10.01,8.855c-4.235,2.695-9.625,2.695-11.165,4.427c-1.54,1.732,0,4.235,4.427,5.197
				c4.427,0.963,31.761,1.155,35.611,0.77c3.85-0.385,6.737-1.925,7.507-4.042c0.77-2.117-1.732-11.934-2.31-13.282
				c-0.577-1.348-1.348-1.155-1.348-2.887s1.54-12.897,4.042-21.367c2.502-8.47,2.887-31.517,3.465-37.292
				c0.577-5.775,0.577-9.047,0.577-9.047s10.395,2.695,15.207,2.695c4.812,0,58.325,1.54,61.982,0.77
				c3.657-0.77,5.005-3.272,5.582-6.352c0.577-3.08-1.54-8.662-1.54-8.662s-35.803-9.432-37.728-9.625
				S284.724,324.565,284.724,324.565z"/>
			<path style="fill:none;stroke:#263238;stroke-linecap:round;stroke-linejoin:round;stroke-miterlimit:10;" d="M237.621,339.496
				c0,0,1.732,3.657,6.93,5.967"/>
			<path style="fill:none;stroke:#263238;stroke-linecap:round;stroke-linejoin:round;stroke-miterlimit:10;" d="M235.696,342.383
				c0,0,2.695,2.31,5.775,2.695"/>
			<path style="fill:none;stroke:#263238;stroke-linecap:round;stroke-linejoin:round;stroke-miterlimit:10;" d="M309.806,335.068
				c0,0,6.93,4.235,11.357,9.817"/>
			<path style="fill:none;stroke:#263238;stroke-linecap:round;stroke-linejoin:round;stroke-miterlimit:10;" d="M313.655,335.646
				c0,0,3.272,1.347,5.005,3.272"/>
			<path style="fill:#FFFFFF;stroke:#263238;stroke-linecap:round;stroke-linejoin:round;stroke-miterlimit:10;" d="
				M242.818,430.685c0.77-2.117-1.732-11.934-2.31-13.282c-0.577-1.348-1.347-1.155-1.347-2.887c0-1.294,0.86-7.854,2.339-14.621
				c-7.165,1.674-12.645-0.022-15.898-1.667c-0.036,1.116-0.072,2.008-0.108,2.621c-0.385,6.545-1.347,10.395-1.347,10.395
				s-3.272-3.465-4.812-1.732c-1.54,1.732-2.887,4.62-2.887,5.967c0,1.348-5.775,6.16-10.01,8.855
				c-4.235,2.695-9.625,2.695-11.165,4.427c-1.54,1.733,0,4.235,4.427,5.197c4.427,0.963,31.761,1.155,35.611,0.77
				C239.161,434.343,242.048,432.803,242.818,430.685z"/>
			<path style="fill:#FFFFFF;stroke:#263238;stroke-linecap:round;stroke-linejoin:round;stroke-miterlimit:10;" d="
				M219.334,409.511c-1.54,1.732-2.887,4.62-2.887,5.967c0,1.348-5.775,6.16-10.01,8.855c-4.235,2.695-9.625,2.695-11.165,4.427
				c-1.54,1.733,0,4.235,4.427,5.197c4.427,0.963,31.761,1.155,35.611,0.77c3.85-0.385,6.737-1.925,7.507-4.042
				c0.77-2.117-1.732-11.934-2.31-13.282c-0.322-0.751-0.7-1.029-0.975-1.423c-1.194,0.579-2.561,1.406-4.03,2.385
				c-2.887,1.925-6.16-0.385-8.085-2.31c-1.925-1.925-3.272-4.812-3.272-4.812S220.874,407.779,219.334,409.511z"/>
		</g>
		<g>
			<path style="fill:none;stroke:#263238;stroke-linecap:round;stroke-linejoin:round;stroke-miterlimit:10;" d="M254.22,249.013
				c0,0-9.563,2.216-10.103,2.755c-0.54,0.539-1.942,0.971-3.669,1.079c-1.726,0.108-2.158,0.432-1.079,1.295
				c1.079,0.863,2.482,0.647,3.345,0.216c0.863-0.432,2.59-2.158,2.59-2.158s11.653-2.266,11.761-2.805
				C257.173,248.855,256.447,247.984,254.22,249.013z"/>
			<path style="fill:#FFFFFF;stroke:#263238;stroke-linecap:round;stroke-linejoin:round;stroke-miterlimit:10;" d="
				M255.663,253.926c0,0-3.129-0.647-3.561-1.079c-0.432-0.432-0.216-2.158-0.216-2.158s-3.669,0.54-4.1,1.079
				c-0.432,0.539-2.698,5.826-3.129,8.74s0.647,4.963,1.511,7.013c0.863,2.05,10.142,18.451,10.142,18.451
				s7.445,12.192,9.603,13.056c2.158,0.863,11.005-0.54,12.3-0.54c1.295,0,3.021-0.539,3.021-0.539l-1.942-8.416l-7.876-2.374
				c0,0-9.603-9.387-11.977-11.761c-2.374-2.374-5.503-8.524-5.503-8.524s2.482-5.934,2.374-7.013S255.663,253.926,255.663,253.926z
				"/>
			<path style="fill:none;stroke:#263238;stroke-linecap:round;stroke-linejoin:round;stroke-miterlimit:10;" d="M251.886,250.689
				c0,0,1.187,1.187,0.216,2.158c-0.971,0.971-3.021,0.647-3.669-0.216"/>
			<path style="fill:none;stroke:#263238;stroke-linecap:round;stroke-linejoin:round;stroke-miterlimit:10;" d="M250.376,253.818
				c0,0,0.647,1.295-0.324,1.834s-2.805-0.755-2.805-0.755"/>
			<path style="fill:none;stroke:#263238;stroke-linecap:round;stroke-linejoin:round;stroke-miterlimit:10;" d="M250.052,255.652
				c0,0-0.324,1.726-0.971,2.266c-0.647,0.539-1.618,0.216-2.374-0.324"/>
			<path style="fill:none;stroke:#263238;stroke-linecap:round;stroke-linejoin:round;stroke-miterlimit:10;" d="M248.002,258.35
				c0,0,0.863,1.295,0,2.158c-0.863,0.863-2.266,0-2.266,0"/>
			<path style="fill:none;stroke:#263238;stroke-linecap:round;stroke-linejoin:round;stroke-miterlimit:10;" d="M246.923,261.155
				c0,0,0.216,1.079-0.54,1.834"/>
			<path style="fill:#FFFFFF;stroke:#263238;stroke-linecap:round;stroke-linejoin:round;stroke-miterlimit:10;" d="M254.22,266.059
				c0,0,2.772-7.484,2.772-9.285c0-1.802-0.97-6.513-0.97-6.513s-0.554-3.326-1.802-1.247c-1.247,2.079-0.139,4.85-0.139,4.85
				s-2.772,3.326-3.049,5.128c-0.277,1.802,0.554,3.326,0.554,3.326"/>
		</g>
		<path style="fill:#263238;stroke:#263238;stroke-linecap:round;stroke-linejoin:round;stroke-miterlimit:10;" d="M295.577,236.938
			c0,0-15.286,10.055-16.696,11.868c-1.41,1.813-0.202,3.425-0.202,3.425s-4.231,27.805-3.425,34.454
			c0.806,6.649,9.067,16.925,10.679,19.343c1.612,2.418-1.025,15.87-0.824,17.281s2.856,1.197,3.91,1.862
			c2.215,1.397,7.593,3.222,14.846,6.043c7.254,2.821,13.298,3.022,13.298,3.022s11.888,2.418,13.5,2.015
			c1.612-0.403-2.015-12.291-2.619-19.141c-0.604-6.851-2.216-6.649-3.425-14.306c-1.209-7.656-6.851-30.021-10.477-39.088
			c-3.627-9.067-13.5-21.559-14.91-22.768C297.821,239.739,295.577,236.938,295.577,236.938z"/>
		<path style="fill:#FFFFFF;stroke:#263238;stroke-linecap:round;stroke-linejoin:round;stroke-miterlimit:10;" d="M289.859,247.424
			c0,0-4.144,2.709-4.94,9.881c-0.797,7.172,0,10.2,1.594,12.909c1.594,2.709,3.825,5.1,3.825,5.1l4.462,13.228
			c0,0-16.894-7.65-19.125-9.244c-2.231-1.594-2.869-3.347-3.506-5.897c-0.637-2.55-0.478-6.694-1.753-7.012
			c-1.275-0.319-7.809-0.637-9.562,0c-1.753,0.638-3.665,4.462-2.869,5.419c0.797,0.956,2.072-0.319,2.072-0.319
			s1.116,4.781,2.391,6.056c1.275,1.275,1.912,1.116,2.391,1.116c0,0,2.869,3.984,4.144,4.941c1.275,0.956,3.187,1.594,3.666,1.594
			c0.478,0,11.315,12.909,19.603,17.212c8.287,4.303,14.822,7.012,16.415,5.897c1.594-1.116,3.665-6.375,3.187-9.244
			c-0.478-2.869-2.55-30.44-4.144-36.177s-6.215-15.618-10.359-16.415C293.206,245.671,291.134,246.946,289.859,247.424z"/>
		<path style="fill:none;stroke:#263238;stroke-linecap:round;stroke-linejoin:round;stroke-miterlimit:10;" d="M290.337,275.314
			c0,0-2.231-10.04-1.594-14.184"/>
		<path style="fill:none;stroke:#263238;stroke-linecap:round;stroke-linejoin:round;stroke-miterlimit:10;" d="M294.799,288.542
			c0,0,12.272,3.187,14.343,5.259"/>
		<path style="fill:none;stroke:#263238;stroke-linecap:round;stroke-linejoin:round;stroke-miterlimit:10;" d="M268.073,267.611
			c0,0-7.202,0.86-7.525,1.505s-0.492,2.373-0.492,2.373"/>
		<path style="fill:none;stroke:#263238;stroke-linecap:round;stroke-linejoin:round;stroke-miterlimit:10;" d="M268.288,270.836
			c0,0-5.267,0.645-5.805,1.075c-0.538,0.43-1.075,3.117-1.075,3.117"/>
		<path style="fill:none;stroke:#263238;stroke-linecap:round;stroke-linejoin:round;stroke-miterlimit:10;" d="M262.447,277.545
			c0,0,0.681-2.624,1.434-2.839s4.945-0.752,4.945-0.752"/>
		<path style="fill:none;stroke:#263238;stroke-linecap:round;stroke-linejoin:round;stroke-miterlimit:10;" d="M264.837,278.661
			l1.086-0.837l1.827-0.107c0,0-0.753,1.72-0.322,2.472"/>
	</g>
</g>
<g id="Character_1">
	<g>
		<g>
			<polygon style="fill:#FFFFFF;stroke:#263238;stroke-linecap:round;stroke-linejoin:round;stroke-miterlimit:10;" points="
				47.328,355.422 36.013,438.139 40.305,438.139 53.18,355.422 			"/>
			<polygon style="fill:#FFFFFF;stroke:#263238;stroke-linecap:round;stroke-linejoin:round;stroke-miterlimit:10;" points="
				105.854,355.422 117.169,438.139 112.877,438.139 100.001,355.422 			"/>
			<polygon style="fill:#FFFFFF;stroke:#263238;stroke-linecap:round;stroke-linejoin:round;stroke-miterlimit:10;" points="
				135.507,355.422 146.822,438.139 142.53,438.139 129.654,355.422 			"/>
			<polygon style="fill:#FFFFFF;stroke:#263238;stroke-linecap:round;stroke-linejoin:round;stroke-miterlimit:10;" points="
				85.565,355.422 96.88,438.139 92.588,438.139 79.712,355.422 			"/>
		</g>
		<path style="fill:#FFFFFF;stroke:#263238;stroke-linecap:round;stroke-linejoin:round;stroke-miterlimit:10;" d="M33.63,279.66
			l10.186,71.47h43.309L76.78,277.567c-0.515-3.466-3.49-6.032-6.994-6.032H40.622C36.297,271.535,32.985,275.383,33.63,279.66z"/>
		<path style="fill:#263238;stroke:#263238;stroke-linecap:round;stroke-linejoin:round;stroke-miterlimit:10;" d="M36.361,279.66
			l10.186,71.47h43.309l-10.346-73.563c-0.515-3.466-3.49-6.032-6.994-6.032H43.353C39.028,271.535,35.716,275.383,36.361,279.66z"
			/>
		
			<rect x="42.255" y="351.13" style="fill:#FFFFFF;stroke:#263238;stroke-linecap:round;stroke-linejoin:round;stroke-miterlimit:10;" width="98.714" height="5.853"/>
	</g>
	<g>
		<g>
			<path style="fill:#92E3A9;stroke:#263238;stroke-linecap:round;stroke-linejoin:round;stroke-miterlimit:10;" d="M84.456,235.196
				c0,0-4.476,3.272-7.221,11.311c-2.745,8.039-1.961,36.861-1.961,36.861s-2.549,7.451-5.49,14.313s-6.47,14.705-8.823,28.626
				c0,0-1.765,2.745,15.882-0.98c17.646-3.725,26.469-5.49,29.214-5.49c2.745,0,1.765-6.666,2.157-7.451
				c0.392-0.784,1.372-3.529,2.941-8.431c1.569-4.902,2.549-8.627,2.549-8.627s0.98-11.764,1.765-13.137
				c0.784-1.372,2.745-4.117,2.353-11.372c-0.392-7.255-7.647-18.627-11.568-22.94c-3.921-4.313-15.293-13.137-16.666-13.333
				C88.215,234.351,84.456,235.196,84.456,235.196z"/>
			<path style="fill:none;stroke:#263238;stroke-linecap:round;stroke-linejoin:round;stroke-miterlimit:10;" d="M87.571,288.331
				c0,0-6.249,3.298-10.588,4.86"/>
			<path style="fill:none;stroke:#263238;stroke-linecap:round;stroke-linejoin:round;stroke-miterlimit:10;" d="M83.231,287.289
				c0,0-6.075,2.604-9.373,3.298"/>
			<path style="fill:none;stroke:#263238;stroke-linecap:round;stroke-linejoin:round;stroke-miterlimit:10;" d="M83.405,312.111
				c0,0,14.928-0.174,20.656,4.513"/>
			<path style="fill:none;stroke:#263238;stroke-linecap:round;stroke-linejoin:round;stroke-miterlimit:10;" d="M78.198,312.631
				c0,0,4.86-3.124,11.63-2.43"/>
		</g>
		<path style="fill:#FFFFFF;stroke:#263238;stroke-linecap:round;stroke-linejoin:round;stroke-miterlimit:10;" d="M115.538,197.191
			c0,0,3.241,2.799,4.125,7.071c0.884,4.272-0.295,4.861,0.884,6.923s3.241,3.241,2.652,4.861c-0.589,1.62-2.504,2.21-2.504,2.21
			s-0.884,9.28-1.178,10.017c-0.295,0.736-1.768,1.031-3.977,1.031c-2.21,0-4.419-1.326-5.598-1.031
			c-1.178,0.295-8.102,9.28-8.544,11.195c-0.442,1.915,8.249,12.227,7.955,13.552c-0.295,1.326-2.651-3.977-12.668-10.459
			c-10.017-6.481-12.227-7.365-12.227-7.365s5.303-9.722,5.303-11.785s-2.799-0.295-5.892-6.187
			c-3.093-5.892-1.031-14.583,3.094-19.003c4.125-4.419,9.87-7.365,16.351-7.365s10.606,1.768,11.49,3.241
			C115.685,195.57,115.538,197.191,115.538,197.191z"/>
		<path style="fill:#263238;stroke:#263238;stroke-linecap:round;stroke-linejoin:round;stroke-miterlimit:10;" d="M114.801,194.097
			c-0.884-1.473-5.008-3.241-11.49-3.241s-12.227,2.946-16.351,7.365c-2.286,2.449-3.934,6.212-4.426,10.082l-0.141,0.083
			c0,0,0.295,8.102-3.388,12.374c-3.683,4.272-8.249,3.683-10.164,7.807c-1.915,4.124,4.566,7.513,0,11.932
			c-4.567,4.419-8.986,4.419-8.986,10.017s6.187,8.102,6.04,10.606c-0.147,2.504-3.535,5.892-1.031,10.164
			c2.504,4.272,7.366,6.187,9.575,5.008c2.21-1.178,4.566-2.504,4.861-8.691c0.295-6.187-2.504-17.53,2.21-21.507
			s9.87-3.535,12.668-2.21c2.799,1.326,5.156,1.62,5.745-2.504c0.589-4.125-2.062-7.955-1.178-10.164
			c0.884-2.21,5.598-5.892,5.156-9.133c-0.442-3.241-2.946-5.598-3.683-7.218c0,0-0.442-1.473-1.178-3.388
			c-0.736-1.915,0.295-3.977,2.799-4.861c2.504-0.884,2.946,2.946,3.83,3.241c0.884,0.295,0.884-0.589,1.915-1.031
			c1.031-0.442,3.683-1.031,4.125-2.504c0.442-1.473-0.295-2.504,1.473-4.861c1.768-2.357,2.357-4.272,2.357-4.272
			S115.685,195.57,114.801,194.097z"/>
		<path style="fill:none;stroke:#263238;stroke-linecap:round;stroke-linejoin:round;stroke-miterlimit:10;" d="M119.221,220.465
			c0,0-1.62-0.147-2.21-1.62"/>
		<path style="fill:#263238;" d="M118.933,210.021c0,0.984-0.265,1.782-0.593,1.782s-0.593-0.798-0.593-1.782
			c0-0.984,0.265-1.782,0.593-1.782S118.933,209.037,118.933,210.021z"/>
		<path style="fill:none;stroke:#263238;stroke-linecap:round;stroke-linejoin:round;stroke-miterlimit:10;" d="M119.424,206.73
			c0,0-1.684-1.497-2.807,0.374"/>
		<polygon style="fill:#263238;stroke:#263238;stroke-linecap:round;stroke-linejoin:round;stroke-miterlimit:10;" points="
			136.524,260.638 136.524,255.89 150.894,255.89 150.894,266.261 136.524,266.261 		"/>
		<path style="fill:#92E3A9;stroke:#263238;stroke-linecap:round;stroke-linejoin:round;stroke-miterlimit:10;" d="M79.392,265.33
			c0,0,12.744,35.292,14.509,38.037c1.765,2.745,3.137,6.47,7.058,6.47c3.921,0,28.822-20.587,31.175-23.528
			c2.353-2.941,13.886-11.676,14.761-12.925c0.875-1.25,0.625-1.374,1-2.499c0.375-1.125,0.875-1.749,0.875-1.749
			s1.999-1.375,2.249-2.749c0.25-1.375,0.25-2.374,0.25-2.374s2.624-1.999,2.374-2.874c-0.25-0.875-0.75-1-1.499-0.5
			c-0.75,0.5-4.873,1.999-4.873,1.999s5.498-4.748,5.373-5.998c-0.125-1.249-0.5-0.75-1.749-0.25c-1.25,0.5-8.247,5.123-8.997,5.498
			c-0.75,0.375-2.624,0.125-3.249-0.75s-1.499-2.374-2.499-2.624c-1-0.25-1.874,0.125-1.374,1.374c0.5,1.25,1.374,1,1.249,2.374
			c-0.125,1.374-0.625,2.499-1,5.123c-0.375,2.624-0.375,2.749-0.625,3.499c-0.25,0.75-9.996,8.247-11.371,9.371
			c-1.374,1.125-13.995,9.247-13.995,9.247s-0.25-1.499-1.749-1.125c-1.499,0.375-1.499,0.375-1.499,0.375
			s-3.499-31.363-4.998-35.237c-1.499-3.874-3.499-8.247-8.747-8.122"/>
		<path style="fill:#FFFFFF;stroke:#263238;stroke-linecap:round;stroke-linejoin:round;stroke-miterlimit:10;" d="M148.769,269.135
			c0,0,1.999-1.375,2.249-2.749c0.25-1.375,0.25-2.374,0.25-2.374s2.624-1.999,2.374-2.874c-0.25-0.875-0.75-1-1.499-0.5
			c-0.75,0.5-4.873,1.999-4.873,1.999s5.498-4.748,5.373-5.998c-0.125-1.249-0.5-0.75-1.749-0.25c-1.25,0.5-8.247,5.123-8.997,5.498
			c-0.75,0.375-2.624,0.125-3.249-0.75c-0.625-0.875-1.499-2.374-2.499-2.624c-1-0.25-1.874,0.125-1.374,1.375
			c0.5,1.25,1.374,1,1.25,2.374c-0.125,1.374-0.625,2.499-1,5.123c-0.375,2.624-0.375,2.749-0.625,3.499
			c0,0,2.374-1.125,5.498,2.499c1.143,1.326,1.781,2.819,2.141,4.21c2.472-2.03,4.509-3.713,4.857-4.21
			c0.875-1.25,0.625-1.374,1-2.499C148.27,269.76,148.769,269.135,148.769,269.135z"/>
		
			<line style="fill:none;stroke:#263238;stroke-linecap:round;stroke-linejoin:round;stroke-miterlimit:10;" x1="151.268" y1="264.012" x2="147.52" y2="266.261"/>
		
			<line style="fill:none;stroke:#263238;stroke-linecap:round;stroke-linejoin:round;stroke-miterlimit:10;" x1="147.27" y1="262.638" x2="145.396" y2="263.887"/>
		<path style="fill:none;stroke:#263238;stroke-linecap:round;stroke-linejoin:round;stroke-miterlimit:10;" d="M105.102,290.414
			c0,0-0.347,4.513-2.777,8.679"/>
		<path style="fill:none;stroke:#263238;stroke-linecap:round;stroke-linejoin:round;stroke-miterlimit:10;" d="M108.4,290.934
			c0,0,0.174,2.43-0.521,5.034"/>
		<g>
			<path style="fill:#FFFFFF;stroke:#263238;stroke-linecap:round;stroke-linejoin:round;stroke-miterlimit:10;" d="
				M171.918,330.762c0,0,3.525,3.173,2.997,9.871c-0.529,6.698-15.865,69.552-16.746,75.369
				c-0.881,5.817,8.814,10.753,11.634,13.221s9.871,2.82,10.4,5.112c0.529,2.292-6.346-0.207-10.4-0.207
				c-4.054,0-13.397-1.939-15.336-1.939c-1.939,0-8.99,1.97-10.753,1.089c-1.763-0.881-2.115-3.878-1.058-6.698
				c1.058-2.82,2.82-6.698,3.526-8.99c0.705-2.292,3.878-18.333,3.173-24.502c-0.705-6.17,0.705-24.425,1.41-29.009
				c0.705-4.583,4.759-25.031,8.109-31.025C162.223,327.06,171.037,329.88,171.918,330.762z"/>
			<path style="fill:#FFFFFF;stroke:#263238;stroke-linecap:round;stroke-linejoin:round;stroke-miterlimit:10;" d="
				M180.203,434.335c-0.529-2.292-7.58-2.644-10.4-5.112c-1.924-1.683-7.044-4.516-9.827-7.992c-1.392,1.554-3.32,3.251-4.98,3.056
				c-2.424-0.285-8.19-2.069-10.306-2.741c-0.7,1.711-1.467,3.522-2.033,5.032c-1.058,2.82-0.705,5.817,1.058,6.698
				c1.763,0.881,8.814-1.089,10.753-1.089c1.939,0,11.282,1.939,15.336,1.939C173.857,434.128,180.732,436.627,180.203,434.335z"/>
			<path style="fill:#263238;stroke:#263238;stroke-linecap:round;stroke-linejoin:round;stroke-miterlimit:10;" d="
				M171.918,330.762c-0.881-0.881-9.695-3.702-13.044,2.292c-3.349,5.993-7.403,26.441-8.109,31.025
				c-0.492,3.197-1.476,20.091-1.697,26.109l16.864-1.414c4.242-16.683,8.702-44.589,8.982-48.139
				C175.444,333.935,171.918,330.762,171.918,330.762z"/>
		</g>
		<path style="fill:#7A7A7A;stroke:#263238;stroke-linecap:round;stroke-linejoin:round;stroke-miterlimit:10;" d="M104.234,319.227
			c0,0,8.867,1.447,24.822,1.642c15.799,0.193,35.757,2.966,39.749,6.09c3.992,3.124,5.207,5.902,4.686,9.894
			c-0.521,3.992-6.422,54.692-7.464,63.197c-1.041,8.505,0.174,15.969,0.174,15.969s6.075,5.902,8.158,7.985
			c2.083,2.083,6.075,5.207,8.679,6.075c2.604,0.868,8.158,0.694,8.679,2.951c0.521,2.257,0.694,1.309-2.257,2.524
			c-2.951,1.215-14.407,1.736-20.482,0c-6.075-1.736-20.829-3.045-21.523-3.739c-0.694-0.694-0.868-3.471-0.173-6.77
			c0.694-3.298,2.083-4.513,3.471-7.29s2.083-18.399,1.389-23.954c-0.694-5.554-1.909-28.481-2.257-32.127
			c-0.347-3.645,0.347-11.63,0.347-11.63s-13.539,0.506-21.003,1.2c-7.464,0.694-57.454,0.962-65.265,0.094
			c-7.811-0.868-8.332-16.837-2.604-26.557c0,0,18.92-4.86,26.904-5.728C96.25,318.186,104.234,319.227,104.234,319.227z"/>
		<path style="fill:none;stroke:#263238;stroke-linecap:round;stroke-linejoin:round;stroke-miterlimit:10;" d="M90.695,323.567
			c0,0-10.935,4.86-17.184,12.324"/>
		<path style="fill:none;stroke:#263238;stroke-linecap:round;stroke-linejoin:round;stroke-miterlimit:10;" d="M82.711,325.823
			c0,0-5.554,2.083-8.158,5.381"/>
		<path style="fill:none;stroke:#263238;stroke-linecap:round;stroke-linejoin:round;stroke-miterlimit:10;" d="M150.232,350.045
			c0,0,8.852-7.811,10.762-12.15"/>
		<path style="fill:none;stroke:#263238;stroke-linecap:round;stroke-linejoin:round;stroke-miterlimit:10;" d="M164.639,336.679
			c0,0-1.909,3.124-5.381,6.422"/>
		<path style="fill:#FFFFFF;stroke:#263238;stroke-linecap:round;stroke-linejoin:round;stroke-miterlimit:10;" d="M183.038,430.079
			c-2.604-0.868-6.596-3.992-8.679-6.075c-2.083-2.083-8.158-7.984-8.158-7.984s-1.215-7.464-0.174-15.969
			c0.324-2.649,0.629-6.435,1.587-13.794l-15.751,3.393c0.244,2.791,0.085,2.605,0.279,4.153c0.694,5.555,0,21.176-1.389,23.954
			c-1.389,2.777-2.777,3.992-3.471,7.29c-0.694,3.298-0.521,6.075,0.173,6.77c0.694,0.694,15.448,2.004,21.524,3.739
			c6.075,1.736,17.531,1.215,20.482,0c2.951-1.215,2.777-0.268,2.257-2.524C191.196,430.773,185.642,430.947,183.038,430.079z"/>
		<path style="fill:#FFFFFF;stroke:#263238;stroke-linecap:round;stroke-linejoin:round;stroke-miterlimit:10;" d="M189.46,435.554
			c2.951-1.215,2.777-0.268,2.257-2.524c-0.521-2.257-6.075-2.083-8.679-2.951c-2.604-0.868-6.596-3.992-8.679-6.075
			c-2.083-2.083-8.158-7.984-8.158-7.984s-1.012,0.181-1.389,2.251c-0.376,2.069-0.376,2.069-0.376,2.069s-2.446,0.941-7.337,0.564
			c-3.502-0.269-5.936-1.308-7.04-1.877c-1.14,1.962-2.201,3.273-2.779,6.019c-0.694,3.298-0.521,6.075,0.173,6.77
			c0.694,0.694,15.448,2.004,21.524,3.739C175.054,437.289,186.51,436.769,189.46,435.554z"/>
	</g>
</g>
<g id="Table_1">
	<g>
		<g>
			
				<rect x="140.349" y="298.124" style="fill:#FFFFFF;stroke:#263238;stroke-linecap:round;stroke-linejoin:round;stroke-miterlimit:10;" width="17.534" height="9.266"/>
			
				<rect x="140.349" y="298.124" style="fill:#92E3A9;stroke:#263238;stroke-linecap:round;stroke-linejoin:round;stroke-miterlimit:10;" width="17.534" height="3.136"/>
			
				<line style="fill:#FFFFFF;stroke:#263238;stroke-linecap:round;stroke-linejoin:round;stroke-miterlimit:10;" x1="149.052" y1="298.324" x2="149.052" y2="306.888"/>
		</g>
		<g>
			<polygon style="fill:#FFFFFF;stroke:#263238;stroke-linecap:round;stroke-linejoin:round;stroke-miterlimit:10;" points="
				269.558,307.386 237.212,307.386 239.961,309.612 267.168,309.612 			"/>
			<g>
				<path style="fill:#FFFFFF;stroke:#263238;stroke-linecap:round;stroke-linejoin:round;stroke-miterlimit:10;" d="
					M261.422,307.387v-5.386l-0.943-0.943c0,0-0.808-0.404-1.481-0.808c-0.673-0.404-1.346-0.269-1.885-0.135
					c-0.539,0.135-0.808,0.943-1.212,0.943s-2.424,0.269-2.424,0.269s-1.077,0.404-1.481,0.539c-0.404,0.135-2.02,1.212-2.02,1.212
					s-2.289,0.269-3.366,0.269c-1.077,0-2.154,1.212-2.154,1.212v2.828H261.422z"/>
				<path style="fill:#92E3A9;stroke:#263238;stroke-linecap:round;stroke-linejoin:round;stroke-miterlimit:10;" d="
					M258.998,300.25c-0.673-0.404-1.346-0.269-1.885-0.135c-0.539,0.135-0.808,0.943-1.212,0.943c-0.404,0-2.424,0.269-2.424,0.269
					s-1.077,0.404-1.481,0.539c-0.404,0.135-2.02,1.212-2.02,1.212s-2.289,0.269-3.366,0.269c-1.077,0-2.154,1.212-2.154,1.212
					v1.077h7.944c0,0,0.943,0,2.289-0.943c1.346-0.943,1.885-1.75,2.828-1.75c0.943,0,1.481,0.943,2.154,1.077
					c0.367,0.073,1.128,0.106,1.75,0.121v-2.141l-0.943-0.943C260.479,301.058,259.671,300.654,258.998,300.25z"/>
			</g>
		</g>
		<g>
			
				<rect x="220.306" y="294.568" style="fill:#263238;stroke:#263238;stroke-linecap:round;stroke-linejoin:round;stroke-miterlimit:10;" width="12.674" height="14.955"/>
		</g>
		<g>
			<path style="fill:#92E3A9;" d="M190.035,291.036l-2.083,15.919c-0.154,1.153,0.742,2.178,1.905,2.178h7.709
				c1.163,0,2.06-1.025,1.905-2.178l-2.083-15.919H190.035z"/>
			<g>
				<path style="fill:none;stroke:#263238;stroke-linecap:round;stroke-linejoin:round;stroke-miterlimit:10;" d="M189.803,304.708
					c0,0,3.482-16.323,6.094-23.941"/>
				<path style="fill:#92E3A9;" d="M194.886,274.068c0,0-2.032-3.193-2.516-2.322c-0.484,0.871,1.064,2.516,1.064,2.516
					s-3.096-1.258-3.58-0.387c-0.484,0.871,2.032,1.935,2.322,1.935c0.29,0-3.774,0.097-3.483,1.355
					c0.29,1.258,2.322,0.29,2.613,0.097c0.29-0.193-2.806,1.935-1.451,2.322c1.355,0.387,3.096-1.064,3.096-1.064
					s-2.129,2.129-0.968,2.613s2.129-1.258,2.129-1.258s-1.258,2.419-0.387,2.516c0.871,0.097,1.548-0.677,1.548-0.677
					s0.387,2.129,1.064,1.839c0.677-0.29,1.258-3,1.258-3s1.161,2.806,1.451,2.225c0.29-0.581,0.097-1.839,0.097-1.839
					s1.355,1.548,1.645,0.581c0.29-0.968-0.387-1.645-0.387-1.645s1.548,0.677,1.452-0.484c-0.097-1.161-1.645-1.838-1.645-1.838
					s1.064-0.677,0.677-1.161c-0.387-0.484-1.839-0.484-1.839-0.484s1.548-1.258,0.968-1.451c-0.581-0.193-2.129,0.29-2.129,0.29
					s0.484-2.709-0.193-2.516c-0.677,0.194-1.161,1.548-1.161,1.548s-0.29-3.096-1.064-2.516
					C194.692,271.842,194.886,274.068,194.886,274.068z"/>
				<path style="fill:#FFFFFF;" d="M198.114,277.482c-0.126,0.656-0.908,1.057-1.748,0.897c-0.84-0.161-1.419-0.823-1.293-1.479
					c0.126-0.656,0.908-1.057,1.748-0.897C197.661,276.164,198.24,276.826,198.114,277.482z"/>
			</g>
			<path style="fill:none;stroke:#263238;stroke-linecap:round;stroke-linejoin:round;stroke-miterlimit:10;" d="M197.023,284.881
				h-6.622l-2.923,21.821c-0.205,1.535,0.988,2.899,2.537,2.899h7.393c1.548,0,2.742-1.364,2.537-2.899L197.023,284.881z"/>
			
				<rect x="189.798" y="284.621" style="fill:#FFFFFF;stroke:#263238;stroke-linecap:round;stroke-linejoin:round;stroke-miterlimit:10;" width="7.84" height="1.727"/>
		</g>
		<g>
			<g>
				
					<rect x="194.761" y="311.495" style="fill:#FFFFFF;stroke:#263238;stroke-linecap:round;stroke-linejoin:round;stroke-miterlimit:10;" width="13.599" height="121.119"/>
				
					<rect x="166.227" y="430.606" style="fill:#FFFFFF;stroke:#263238;stroke-linecap:round;stroke-linejoin:round;stroke-miterlimit:10;" width="71.032" height="7.533"/>
			</g>
			<g>
				<polygon style="fill:#92E3A9;stroke:#263238;stroke-linecap:round;stroke-linejoin:round;stroke-miterlimit:10;" points="
					340.478,387.257 328.056,309.644 74.851,309.644 62.429,387.257 81.273,395.717 80.119,405.332 210.106,405.332 
					233.565,405.332 322.787,405.332 321.634,395.717 				"/>
				
					<line style="fill:#FFFFFF;stroke:#263238;stroke-linecap:round;stroke-linejoin:round;stroke-miterlimit:10;" x1="81.273" y1="395.717" x2="92.426" y2="314.956"/>
				
					<line style="fill:#FFFFFF;stroke:#263238;stroke-linecap:round;stroke-linejoin:round;stroke-miterlimit:10;" x1="321.634" y1="395.717" x2="313.942" y2="318.033"/>
				
					<line style="fill:none;stroke:#263238;stroke-linecap:round;stroke-linejoin:round;stroke-miterlimit:10;" x1="289.531" y1="344.127" x2="287.791" y2="318.033"/>
				
					<line style="fill:none;stroke:#263238;stroke-linecap:round;stroke-linejoin:round;stroke-miterlimit:10;" x1="114.347" y1="316.879" x2="112.809" y2="386.103"/>
			</g>
		</g>
		<path style="fill:#263238;stroke:#263238;stroke-linecap:round;stroke-linejoin:round;stroke-miterlimit:10;" d="M233.78,297.814
			c-1.993,0-3.608,1.837-3.608,4.102c0,2.266,1.616,4.102,3.608,4.102c1.993,0,3.608-1.837,3.608-4.102
			C237.389,299.651,235.773,297.814,233.78,297.814z M233.78,304.367c-1.19,0-2.155-1.097-2.155-2.45c0-1.353,0.965-2.45,2.155-2.45
			c1.19,0,2.155,1.097,2.155,2.45C235.936,303.27,234.971,304.367,233.78,304.367z"/>
	</g>
	<polygon style="fill:#FFFFFF;stroke:#263238;stroke-linecap:round;stroke-linejoin:round;stroke-miterlimit:10;" points="
		165.2,307.386 132.854,307.386 135.603,309.612 162.809,309.612 	"/>
</g>
<g id="Lamps">
	<g>
		<g>
			
				<rect x="369.685" y="45.771" style="fill:#92E3A9;stroke:#263238;stroke-linecap:round;stroke-linejoin:round;stroke-miterlimit:10;" width="15.71" height="23.01"/>
			<polygon style="fill:#92E3A9;stroke:#263238;stroke-linecap:round;stroke-linejoin:round;stroke-miterlimit:10;" points="
				398.839,81.469 356.243,81.469 364.588,58.46 390.493,58.46 			"/>
		</g>
		
			<line style="fill:#FFFFFF;stroke:#263238;stroke-linecap:round;stroke-linejoin:round;stroke-miterlimit:10;" x1="377.541" y1="45.967" x2="377.541" y2="15.26"/>
	</g>
	<g>
		<g>
			
				<rect x="661.844" y="45.771" style="fill:#92E3A9;stroke:#263238;stroke-linecap:round;stroke-linejoin:round;stroke-miterlimit:10;" width="15.71" height="23.01"/>
			<polygon style="fill:#92E3A9;stroke:#263238;stroke-linecap:round;stroke-linejoin:round;stroke-miterlimit:10;" points="
				690.997,81.469 648.401,81.469 656.747,58.46 682.652,58.46 			"/>
		</g>
		
			<line style="fill:#FFFFFF;stroke:#263238;stroke-linecap:round;stroke-linejoin:round;stroke-miterlimit:10;" x1="669.699" y1="45.967" x2="669.699" y2="15.26"/>
	</g>
	<g>
		<g>
			
				<rect x="77.526" y="45.771" style="fill:#92E3A9;stroke:#263238;stroke-linecap:round;stroke-linejoin:round;stroke-miterlimit:10;" width="15.71" height="23.01"/>
			<polygon style="fill:#92E3A9;stroke:#263238;stroke-linecap:round;stroke-linejoin:round;stroke-miterlimit:10;" points="
				106.68,81.469 64.084,81.469 72.429,58.46 98.335,58.46 			"/>
		</g>
		
			<line style="fill:#FFFFFF;stroke:#263238;stroke-linecap:round;stroke-linejoin:round;stroke-miterlimit:10;" x1="85.382" y1="45.967" x2="85.382" y2="15.26"/>
	</g>
</g>
</svg>
